<svg xmlns="http://www.w3.org/2000/svg" id="_レイヤー_2" data-name="レイヤー 2" viewBox="0 0 127 110"><defs><style>.cls-2{fill:#231815}</style></defs><path id="_レイヤー_2-2" d="M63.5 0 0 110h127z" data-name="レイヤー 2" style="fill:#394073"/><g id="_レイヤー_1-2" data-name="レイヤー 1"><path d="M62.41 46.16c.04.24.07.49.08.73.02.25.02.49.02.74 0 .1 0 .21.03.31.02.1.04.2.07.3.08.29.2.58.3.87.26.71.64 1.34 1.13 1.92.14.17.27.34.38.53.17.3.38.55.67.69l.14.05.18.06.05.02c.18.05.3.17.43.3l.16.15.16.12c.11.06.23.1.35.16.16.07.31.15.47.21l.05.02.23.09c.09.03.18.06.27.06.26.03.52.05.77.07.24.02.45.04.67.05h.12l.17.02c.1 0 .18-.02.27-.03.37-.03.7-.1 1.01-.23.15-.07.3-.13.46-.18l.05-.02.13-.05c.12-.04.23-.09.34-.14.61-.27 1.17-.63 1.72-1.02l.21-.21c.1-.12.2-.23.3-.34.31-.34.61-.69.76-1.14l.02-.03c.14-.15.25-.32.35-.5s.18-.36.25-.55c.11-.33.23-.65.34-.98s.21-.66.28-.99c.1-.48.16-.97.3-1.44.1-.32.16-.63.08-.97v-.18l.03-.18.04-.26v-.26c-.02-.17-.08-.33-.19-.49-.15-.22-.12-.43.03-.64.07-.09.15-.17.19-.27.06-.17.13-.36.13-.53a3 3 0 0 0-.14-.8c-.16-.5-.35-.99-.53-1.48l-.02-.07a.77.77 0 0 0-.47-.48.7.7 0 0 1-.41-.4c-.08-.19-.21-.35-.41-.41-.28-.09-.48-.27-.66-.47-.33-.37-.84-.46-1.21-.77-.09-.08-.27-.07-.41-.1-.36-.08-.74-.13-1.08-.25l-.21-.06-.2-.05h-.02l-.11-.01c-.09-.01-.18-.02-.27-.02q-.135 0-.27.03h-.14l-.16.06-.25.07c-.67.25-1.36.44-2.02.71-.39.16-.77.38-1.12.61-.16.1-.29.27-.38.44-.12.2-.25.34-.47.42-.17.06-.32.14-.46.23-.19.12-.36.28-.48.5-.09.16-.23.3-.37.41-.19.14-.3.32-.35.54-.1.43-.31.82-.54 1.19-.27.43-.42.91-.53 1.41-.05.22-.09.45-.17.67-.1.27-.14.53-.07.81.05.24.03.47-.02.71s-.09.51-.05.75Zm1.01-.75.09-.14.05-.02.13-.03.13.03.1-.02h.07l.06-.06.04-.03.02-.08v-.04l-.05-.15c-.08-.14-.2-.26-.3-.39-.1-.11-.14-.23-.04-.35l.18-.09.18.05c.12.06.23.13.35.19l.17.04.18-.1.04-.12-.06-.24-.15-.11-.19-.14c-.61-.34-.68-.57-.44-1.23.2-.56.56-1.01.88-1.5l.06-.08c.12-.32.33-.58.54-.84l.09-.11c.19-.22.38-.43.51-.69l.1-.13.14-.09c.47-.21.93-.44 1.4-.66.23-.11.47-.22.71-.31s.48-.18.73-.26l.45-.12c.15-.04.3-.06.45-.07h.02c.12 0 .23 0 .35.01.09 0 .18.01.28.02l.23.02c.43.01.85.01 1.22.28l.26.05c.1 0 .18.03.26.06l.11.03c.1.06.19.14.27.25.06.08.15.17.24.21.25.11.44.29.61.49.21.24.46.41.77.48.16.04.21.15.23.28v.25l-.1.21-.21.03c-.18 0-.37-.01-.55-.02h-.44c-.12.01-.24.04-.35.07-.12.03-.23.08-.34.12-.09.04-.16.05-.21.06h-.05l-.07-.05v-.02l-.03-.02s-.04-.11-.07-.2l-.06-.29c-.02-.1-.05-.19-.09-.28l-.12-.19-.16-.15-.17-.05h-.04l-.09.02h-.04l-.13.08c-.14.09-.15.23-.11.38.12.54.02 1.06-.19 1.57l-.09.25c-.09.3-.1.61.07.92.09.17.11.38.16.57V43l.03.12c.08.21.17.42.25.63.12.3.23.6.35.89l.14.25c.06.12.11.24.19.35.08.12.23.19.38.31-.08.24-.15.52-.26.78l-.12.11-.06.02-.12.02h-.05c-.11 0-.21-.03-.3-.1s-.17-.17-.24-.27c-.08-.11-.18-.19-.28-.26s-.04-.03-.04-.03l-.2-.07H71l-.05-.01h-.28c-.11 0-.2-.02-.29-.06l-.05-.03a.74.74 0 0 1-.25-.22l-.12-.11-.04-.02-.09-.02h-.05l-.17.04-.22.15-.17.24-.09.26v.27c.04.22.13.3.35.32l.19.02c.14.02.29.03.43.05.37.04.74.09 1.1.13.1.01.19.05.27.1l.18.15.18.14.06.02.14.03h.07c.09 0 .17-.02.27-.05l.1-.04c.3-.13.5-.37.71-.61.08-.1.17-.2.27-.29.22-.22.21-.45-.05-.63-.1-.07-.21-.12-.28-.16l.03-.87c0-.14.08-.22.23-.23l.2.02h.15l.09.04.08.03.11.04.13.13.07.07q.075.12.12.3c.07.34.08.7.03 1.04-.09.64-.24 1.27-.39 1.9l-.09.23c-.07.19-.17.37-.29.54l-.11.16c-.13.16-.19.33-.22.54-.03.13-.08.26-.11.39-.05.2-.1.39-.17.58-.06.16-.15.3-.26.42-.13.15-.29.27-.47.34-.38.15-.59.43-.77.76-.07.12-.16.23-.25.34s-.18.1-.18.1h-.04l-.13-.04c-.14-.08-.28-.15-.42-.23s-.28-.16-.41-.24c-.36-.24-.77-.32-1.17-.42h-.2l-.07.01-.21.06-.19.02-.24-.08-.18-.08h-.06l-.11-.01-.11.02-.05.01-.11.09c-.11.15 0 .53.23.66.2.11.42.19.64.23.27.05.55.05.82.09.1.01.2.07.27.15l.04.24-.21.09c-.13 0-.25-.03-.37-.07l-.17-.08-.17-.08q-.24-.15-.51-.24s-.08-.03-.08-.03c-.17-.05-.35-.08-.53-.09h-.44a.75.75 0 0 1-.33-.1l-.04-.03c-.11-.07-.21-.16-.3-.29l-.16-.2a1.9 1.9 0 0 0-.42-.37c-.32-.19-.47-.51-.6-.84v-.16l.06-.02.12-.03h.89c.14.23.28.46.44.68.08.11.2.21.31.29l.24.09.2-.1.05-.19-.07-.11-.07-.11-.1-.08c-.1-.08-.21-.16-.23-.32l.2-.1c.18-.13.17-.33-.03-.41l-.21-.07h-.06l-.14-.03-.14.03-.07.02-.2.16c-.17-.21-.37-.32-.62-.37-.38-.08-.73-.22-1.01-.52-.08-.08-.21-.12-.32-.16-.14-.05-.22-.14-.2-.3.05-.39-.08-.68-.41-.9l-.17-.23c-.04-.13.02-.23.12-.32l.14-.06.14.03c.1.04.2.09.31.11h.14l.05-.02.12-.12.02-.16-.09-.14c-.1-.09-.2-.16-.31-.24l-.18-.09c-.43-.24-.58-.65-.43-1.12Zm9.71-2.46c.1.15.22.29.33.44a.7.7 0 0 1-.26.09h-.05l-.08-.04-.03-.03-.08-.18c-.08-.28-.16-.57-.22-.86-.06-.24.05-.43.2-.6.09-.09.2-.17.32-.23.25-.13.52-.24.77-.35l.06-.02.22.05v.07l-.08.08-.06.02c-.53.16-.79.6-1.1 1-.14.19-.06.38.06.55ZM45.51 71.92c.03.12.06.24.08.36s.04.24.04.36c.01.24-.01.48-.1.73l-.06.26c-.01.17.03.33.09.48l.12.23.1.17.02.11-.06.09-.16.11c-.4.27-.42.55-.13.94.36.49.69 1.01 1.01 1.53.12.2.16.45.23.68.12.43.34.78.77.98.12.05.22.14.31.23s.18.17.28.24c.3.2.64.32.97.48.1.05.21.09.32.12.11.04.22.07.32.12l.18.07.06.01.12.02h.06l.13-.02.11-.04.13-.04h.03l.09.04.03.02.1.11c.13.21.13.25-.04.45l-.03.03-.06.07c-.07.1-.09.22.01.3.08.06.19.09.29.1h.03l.17-.1.22-.1c.17-.08.34-.17.52-.25l.26-.02c.13.01.24.07.26.21.03.13 0 .24-.13.29-.16-.06-.3-.12-.41-.16-.19.16-.32.29-.46.4l-.04.03c-.32.25-.64.48-.95.73-.23.2-.48.34-.79.37l-.14.06c-.14.08-.24.22-.26.39v.21l.11.16.05.02.14.03c.17-.03.35-.07.48-.17.51-.38 1.02-.76 1.51-1.17l.15-.12.2-.13.05-.02h.02l.15-.04h.07l.17.03.07.02.09.04h.22l.07-.02.14-.14.04-.04.1-.2.14-.16c.12-.19.11-.42.11-.65-.01-.41-.18-.7-.5-.85-.1-.05-.22-.08-.36-.1-.2-.03-.39-.06-.58-.12-.16-.05-.31-.08-.47-.08h-.04l-.17.02-.09.01-.26.1-.16.04-.17-.08a.7.7 0 0 0-.26-.17q-.135-.06-.3-.09c-.15-.03-.3-.09-.43-.15-.47-.23-.94-.47-1.4-.71-.1-.05-.17-.16-.23-.26-.19-.31-.36-.62-.54-.94-.06-.12-.13-.23-.17-.35-.19-.53-.28-1.07-.22-1.64.02-.26-.02-.53-.08-.78-.13-.54-.22-1.07-.12-1.62.04-.2.03-.42 0-.62-.05-.49-.13-.98-.2-1.47-.03-.21-.11-.4-.32-.45h-.1l-.18.06-.03.02-.14.15c-.28.37-.37.79-.25 1.24ZM54.7 57.88a1.14 1.14 0 0 0 .63.17c.31.01.63.05.94.1.17.02.34.07.51.11.37.08.75.16 1.11.26.11.03.21.13.32.16.46.11.89.27 1.32.48.53.26 1.09.44 1.65.65.25.09.5.17.75.25l.2.03h.02l.18-.04.04-.02.12-.14v-.09c.01-.13-.06-.27-.18-.38l-.09-.08c-.08-.05-.18-.09-.27-.12-.14-.04-.28-.05-.42-.08-.16-.04-.34-.05-.47-.14-.49-.33-1.04-.51-1.56-.76a4 4 0 0 0-.82-.29c-.25-.06-.5-.11-.76-.13-.18-.01-.36-.07-.54-.12-.4-.12-.79-.27-1.19-.38-.27-.07-.56-.11-.86-.16-.11.03-.23.05-.34.08l-.12.04c-.11.05-.21.15-.28.26l-.04.14c0 .08.03.15.13.21ZM53.92 59.1c.36.01.72.06 1.07.13.47.09.95.19 1.41.32.42.12.82.3 1.23.45.63.23 1.25.46 1.92.56.27.04.53.09.77.26.21.16.45.28.68.41l.02.02.24.07h.05l.1-.02.05-.02.12-.1c.06-.09.07-.21.04-.33-.02-.1-.08-.2-.16-.26-.16-.11-.34-.2-.53-.26-.5-.17-1-.32-1.5-.48-.1-.03-.2-.1-.29-.15-.4-.22-.8-.41-1.25-.5-.63-.13-1.26-.28-1.9-.41-.46-.09-.92-.17-1.38-.25-.18-.03-.37-.04-.55-.06h-.13c-.26 0-.41.13-.41.33l.03.11c.05.1.17.18.37.18M53.33 60.21l.12.1c.15.05.32.07.48.1l.77.15.26.05c.74.09 1.47.24 2.15.58.44.22.86.49 1.32.68.09.04.18.08.28.12.38.16.76.33 1.11.55.1.07.25.1.37.1l.1-.02.07-.01.08-.06.05-.04.06-.1.03-.05.03-.2-.06-.12-.08-.13-.02-.02a1.58 1.58 0 0 0-.9-.51c-.64-.13-1.23-.38-1.81-.67-.18-.09-.36-.17-.55-.23-.37-.13-.76-.22-1.14-.31-.19-.04-.39-.08-.58-.13-.27-.06-.55-.11-.82-.16-.28-.05-.55-.09-.83-.13h-.12l-.24.04-.08.05-.1.19.02.09.02.07ZM52.88 61.54l.23.06.17.04c.13.03.27.06.4.08h.1c.17.03.34.05.52.08.54.07 1.08.18 1.56.48l.27.12c.61.34 1.23.67 1.83 1.03.42.26.82.55 1.23.83.1.06.18.09.27.1l.08-.03.14-.05c.14-.12.19-.32.09-.51-.08-.14-.18-.28-.31-.37-.23-.16-.48-.3-.74-.44l-.42-.21c-.43-.23-.87-.46-1.31-.66-.55-.26-1.09-.54-1.66-.7-.74-.2-1.5-.28-2.26-.42v.02h-.15c-.16.03-.27.13-.28.26l.06.2.19.1ZM55.3 56.35q.06.135.24.21l.21.05c.26.04.52.09.76.18.12.05.25.09.37.13.12.03.25.06.38.07.19.02.38.08.56.15.34.13.69.26 1.03.4.21.08.42.17.62.26.6.29 1.18.63 1.77.94.21.11.44.2.67.28h.19l.05-.01.12-.12c.05-.13 0-.3-.11-.39l-.17-.09-.2-.1c-.42-.2-.84-.4-1.23-.63-.53-.32-1.08-.57-1.65-.8-.93-.37-1.9-.67-2.8-1.12l-.23-.04c-.39 0-.61.19-.61.48l.02.11v.05ZM63.74 54.34l.04.02.19.06h.13l.17-.03.21.04.06.02.19.08c.28.13.56.22.72.28h.21v-.01h.13v-.01l.16-.05.1-.04.13-.08h.02v-.01l.07-.05.17-.2c.06-.09.12-.18.15-.28.03-.08.03-.17-.04-.27l-.12-.11h-.03l-.02-.01-.09-.02c-.09 0-.19.03-.29.07l-.11.02-.24.04c-.11 0-.22-.02-.33-.05l-.22-.04-.22.05-.23.04-.19-.02-.22-.09c-.09-.04-.19-.06-.27-.11-.53-.33-1.05-.68-1.57-1.02-.16-.11-.32-.23-.47-.35l-.1-.08-.03-.02-.09-.03h-.03l-.1.03h-.02c-.14.1-.17.27-.05.44.08.12.2.23.32.32s.24.17.34.27.2.21.26.36c.06.12.21.25.34.27.33.05.57.2.78.45l.16.15ZM58.88 64.91c-.83-.51-1.57-1.15-2.46-1.57-.54-.25-1.03-.58-1.56-.85-.21-.11-.44-.19-.67-.27l-.24-.09-.13.04c-.1.03-.18.09-.22.19l.03.22.1.13.23.12c.3.04.56.14.8.28s.48.3.72.45c.31.19.62.36.94.54.22.12.46.21.67.35.11.07.21.19.27.31.1.19.23.34.43.37.26.04.43.19.61.35.1.09.23.17.37.21h.22v-.01l.08-.04.02-.02.02-.02.05-.09v-.03l.02-.01v-.18l-.06-.12a.6.6 0 0 0-.23-.26ZM68.8 69.06h-.04v-.01h-.16c-.13.07-.26.13-.36.23-.3.3-.61.6-.89.92-.19.21-.38.42-.58.6-.26.23-.55.44-.89.58-.15.06-.29.21-.38.35v.03l-.03.3.12.1.18.09c.15-.09.29-.15.41-.24.27-.19.53-.38.79-.59.25-.21.49-.44.72-.66.37-.37.74-.75 1.11-1.12l.12-.11.03-.05c.06-.1.09-.2 0-.31l-.14-.11ZM65.34 68.01l.2.05c.24-.06.52-.14.72-.38.12-.14.26-.26.4-.39l.33-.3c.17-.16.34-.31.51-.47l.06-.06c.17-.15.34-.29.5-.45.12-.11.25-.22.33-.35v-.3l-.17-.06-.11-.04c-.15.06-.3.11-.45.18q-.195.09-.36.24l-.09.08c-.51.56-.99 1.14-1.67 1.5l-.02.02a.76.76 0 0 0-.29.3c-.1.17-.04.34.11.41ZM68.92 67.88l-.03-.04-.16-.07h-.02l-.06.01-.12.04c-.14.08-.27.2-.39.32l-.12.13c-.08.1-.16.2-.24.29-.13.15-.27.29-.44.42l-.03.03-.11.1c-.35.4-.74.74-1.23.97-.16.08-.3.21-.42.35l-.03.05-.06.16c0 .09.02.18.09.24l.19.06h.03l.22-.11c.16-.12.33-.23.49-.35l.04-.03.78-.6c.1-.08.2-.18.29-.27l.97-.94c.1-.1.2-.2.3-.29l.08-.14.05-.09-.04-.18-.04-.05ZM58.29 36.98l.05-.05.02-.12.01-.07-.07-.19a.8.8 0 0 0-.32-.26c-.56-.27-1.18-.4-1.71-.73l-.12-.05c-.2-.1-.41-.19-.61-.3l-.24-.07-.2.09c-.11.12-.1.27.09.42.24.19.49.37.76.51.53.29 1.06.56 1.6.82.13.07.29.09.43.14l.14-.03.09-.02zM58.2 31.05l-.14-.09c-.31-.18-.65-.25-1-.3-.23-.03-.44-.11-.67-.16-.31-.07-.61-.16-.93-.22l-.15.02-.05.02-.11.15c-.04.13.02.23.13.3.18.11.35.25.59.28l.26.06.24.11c.22.14.46.21.71.26s.49.1.73.19h.13c.26.01.44-.07.47-.21v-.13l-.04-.11zM56.54 38.92c.4.2.8.41 1.2.6l.25.07h.15l.06-.03.12-.1.02-.02c.08-.14.04-.27-.06-.36-.11-.1-.24-.2-.37-.27-.7-.35-1.4-.68-2.1-1.02-.09-.04-.18-.06-.31-.11l-.24.17c-.07.1-.01.21.07.29.19.2.39.38.66.48l.24.11c.1.06.2.12.31.17ZM73.66 55.89c-.16.22-.22.49-.31.72l.02.17.02.04.05.08.04.03.08.04h.04l.14-.01a.75.75 0 0 0 .29-.24c.19-.29.4-.55.65-.78l.16-.21c.16-.34.34-.65.63-.9.15-.13.1-.31-.08-.49l-.21-.11h-.02l-.16.08c-.14.14-.29.29-.36.46-.17.37-.4.67-.74.89-.1.06-.17.14-.23.23ZM65.81 69.59q.54-.21.93-.66c.25-.3.54-.58.8-.87l.07-.09.14-.17.06-.21-.04-.14-.04-.08-.04-.02-.12-.04h-.05l-.19.07-.19.13c-.23.16-.45.35-.62.58-.21.29-.47.52-.8.67l-.18.14-.13.1c-.07.09-.12.21-.12.33l.04.13c.04.1.12.16.3.17l.18-.05ZM58.4 40.51l-.13-.08a1.8 1.8 0 0 0-.75-.33c-.25-.05-.48-.13-.68-.3-.11-.09-.24-.16-.37-.2h-.21l-.09.03-.05.03h-.01l-.05.07-.03.03-.03.13c.05.35.13.6.56.64.39.03.76.17 1.06.45.08.08.17.14.26.19l.1.02.23.05.15-.03.07-.02.15-.16c.07-.15 0-.28-.07-.4l-.14-.14ZM61.89 50.63l-.11.12v.03c-.07.15-.05.3.04.42s.14.11.14.11c.3.12.52.31.73.54l.19.16.04.02.22.06h.14c.21.21.39.41.57.59l.21.13h.04l.19-.06v-.02h.02c.13-.12.14-.29 0-.47l-.15-.18-.05-.05-.12-.1-.06-.04h-.01l-.12-.06-.09-.02h-.14l-.05-.01c-.32-.34-.62-.67-.93-.99l-.07-.08-.22-.14-.08-.02-.13-.03h-.05l-.11.03-.04.02ZM57.88 44.19c-.15-.09-.31-.15-.48-.21-.32-.12-.64-.23-.91-.45-.14-.11-.32-.19-.49-.27-.1-.04-.18-.05-.26-.04h-.05l-.18.15v.07c-.05.12 0 .24.16.37l.05.04c.29.18.57.37.86.54.24.14.48.25.73.37l.22.05h.16999999999999998l.22-.06.14-.18v-.15c-.02-.1-.1-.18-.19-.23ZM57.93 42.91c-.43-.23-.87-.45-1.39-.45l-.13-.22a.53.53 0 0 0-.21-.23l-.1-.02-.23-.04-.18.05-.11.1-.02.15.06.14v.04c.08.1.15.17.23.23l.06.04c.08.04.16.07.25.07h.01l.24-.03h.01c.15.12.26.22.37.31.14.1.28.21.43.29.18.1.36.2.56.26h.19l.06-.03.14-.13v-.03c.05-.13 0-.29-.14-.41l-.11-.07ZM68.77 54.83c.06-.09.08-.19.05-.29l-.05-.08a.5.5 0 0 0-.2-.18l-.11-.03-.17-.05c-.29-.02-.58-.03-.86-.05h-.05l-.2.01-.06.02-.06.07-.05.06c-.04.14.03.28.22.36.25.11.41.25.38.57l.06.19.02.03.15.07.11-.03c.15-.1.3-.2.44-.31.12-.09.23-.19.34-.29zM66.27 58.45c-.12.12-.17.26-.09.42.07.13.19.18.34.21l.11.02c.06-.02.16-.04.25-.08.43-.15.72-.5 1.06-.77l.02-.02.09-.15-.04-.18-.13-.12-.05-.01h-.16c-.39.14-.77.3-1.15.46-.09.04-.17.14-.25.21ZM67.09 64.79c.06.02.12.04.22.04l.23-.1c.09-.04.19-.09.28-.16l.13-.12c.22-.19.43-.39.64-.59l.13-.24-.06-.19-.03-.06-.09-.07-.09-.08-.07-.02-.11-.02h-.03l-.14.04-.07.03c-.06.05-.12.12-.15.21l-.02.04-.11.2-.11.1-.08.07-.22.16-.2.15-.08.09c-.06.07-.11.15-.11.25v.02c0 .12.04.2.15.24ZM53.03 82.28l-.07-.02h-.22c-.12 0-.23.02-.31.07l-.08.08-.08.08-.05.22v.11c0 .15 0 .3-.03.45-.02.14-.02.27.11.35l.21.06.22-.08c.21-.17.42-.35.61-.55.09-.09.13-.22.19-.34l-.1-.21-.18-.14-.05-.02-.17-.05ZM71.08 54.05l-.06-.02-.19-.02-.21.06-.15.03h-.04l-.15-.03h-.12c-.17.06-.35.13-.52.19h-.01c-.14.06-.24.12-.31.21v.03l-.06.09q-.045.105-.06.24l.02.07c.02.13.09.22.24.22l.14-.03.15-.03q.63-.255 1.26-.54c.17-.07.23-.2.19-.34l-.09-.11-.03-.04ZM66.78 65.12l-.07-.04-.12-.05-.17.03-.16.1c-.14.08-.28.15-.4.25-.1.07-.18.17-.27.26l-.2.19-.11.21c0 .11.02.2.06.26v.02l.03.02.16.07h.07c.12-.01.23-.06.33-.13.18-.13.35-.27.5-.42.1-.1.19-.22.27-.33l.08-.1c.07-.1.09-.22 0-.33ZM65.73 62.91h.01l.02.03h.16l.05-.02.09-.07.04-.03c.14-.14.28-.27.43-.4l.24-.21.08-.07.05-.04.1-.18v-.22l-.01-.02-.11-.06-.05-.03h-.04l-.22.04-.13.08c-.17.1-.35.19-.52.31l-.03.03c-.18.14-.31.32-.33.56 0 .14.06.25.17.32ZM65.77 61.04l.02.04c.07.12.2.13.34.13l.18-.03c.17-.03.33-.08.45-.17l.15-.15.08-.12.06-.16.03-.09v-.02c.01-.13.01-.25-.1-.34l-.06-.02-.13-.04-.07.02-.14.05-.24.17c-.15.11-.3.21-.45.33-.12.1-.2.24-.13.41ZM65.21 64.29v.23l.16.19c.07.04.15.07.25.09.16-.08.31-.16.46-.24l.08-.04.09-.09c.08-.07.14-.16.18-.26l.04-.12v-.04l-.03-.22-.02-.03-.03-.04-.05-.02-.09-.03-.13.03h-.02l-.2.11-.16.09c-.13.07-.26.14-.39.22l-.15.17Z" class="cls-2"/><path d="M49.42 82.27h.04c.09.02.16 0 .22-.01l.1-.02.19-.14.1-.13.33-.45.04-.05c.08-.11.08-.23-.01-.33l-.17-.08-.14.03h-.02l-.15.12-.19.18c-.15.14-.31.27-.5.36l-.07.11-.07.11.18.25.13.03ZM61.64 50.35l.26-.04.09-.16-.02-.13c-.04-.09-.09-.19-.13-.28s-.09-.19-.13-.28a.7.7 0 0 0-.43-.38h-.12l-.19.07-.02.03-.08.21.02.09c.1.21.23.39.39.56.1.1.2.2.32.28l.04.04ZM67.24 63.47l.16-.05h.05l.16-.05c.14 0 .23-.11.22-.27v-.04l-.05-.11-.03-.04-.07-.09-.06-.04-.08-.06h-.06v-.01l-.09-.02h-.03l-.09.03c-.11.04-.25.11-.39.19l-.1.06c-.09.06-.17.12-.21.17l-.08.15-.03.07.05.2.02.01.15.1h.03l.13-.03.11-.03c.1-.06.19-.11.29-.15ZM68.25 59.11l-.04-.03h-.04l-.2.02c-.15.06-.31.12-.44.21l-.09.09c-.1.08-.21.16-.29.26v.06l-.01.11v.11l.2.15.13-.03.09-.02c.1-.05.2-.11.3-.16s.2-.11.3-.16l.17-.15c.09-.13.11-.26.02-.4l-.1-.07ZM68.39 60.51l-.02-.02-.18-.08h-.08l-.17.06c-.13.05-.24.1-.35.18l-.17.15-.07.07-.07.09-.08.1v.27l.08.05.06.04.14.04.07-.03.13-.06.08-.05c.18-.12.37-.23.54-.36l.05-.06.12-.14-.05-.18-.03-.05ZM68.95 66.36h-.03l-.03-.03-.12-.02h-.13l-.18.06c-.11.08-.21.17-.32.26l-.16.13-.11.17v.04l.03.15.07.04.07.05.08.05h.06c.16-.02.3-.05.41-.11.12-.06.22-.14.31-.24l.06-.05c.11-.12.16-.27.08-.42l-.08-.1ZM72.95 54.93l.02.04.05.07.04.03.07.04h.18l.2-.11c.2-.18.41-.35.6-.55l.03-.26-.1-.08-.07-.06c-.33 0-.92.44-1 .69v.17ZM67.86 62.02c-.08.07-.16.13-.21.22v.04l-.02.03v.17l.02.02c.05.07.13.13.24.13l.1-.03.05-.03c.12-.08.23-.16.35-.25h.01l.23-.17.04-.26-.09-.12h-.01l-.05-.03-.14-.02c-.17.04-.33.12-.46.22l-.06.06ZM77.72 58.13l.19.05h.13l.07-.02.06-.02.14-.11.1-.25.05-.17h-.03v-.11c0-.14-.06-.26-.21-.3s-.13.02-.13.02l-.04.02-.11.12-.2.26c-.14.18-.14.37-.03.48l.03.04ZM79.23 59.25c.08-.04.12-.16.17-.25.02-.03 0-.08-.02-.19 0-.03.02-.13 0-.23l-.08-.14-.03-.03-.12-.04h-.06l-.11.03c-.14.08-.22.23-.23.38-.02.17.04.35.19.44l.3.03ZM75.91 73.81l-.15-.21-.07-.05-.14-.1-.09-.04-.15-.05-.11-.01H75c-.12 0-.24 0-.38.02a.7.7 0 0 0-.25-.01l-.1.02-.14.06-.08.05-.12.12-.02.03-.03.03-.13.24c-.08.19-.15.39-.16.59-.01.15.03.34.12.46.21.27.48.48.82.57l.23.03h.06l.19-.03.07-.02.22-.13c.19-.16.35-.36.51-.55l.13-.23a1.1 1.1 0 0 0 .05-.54l-.09-.25Zm-.67.81-.15.19-.07.02-.15.04-.16-.03-.1-.02-.11-.09-.06-.05-.05-.14-.03-.07.04-.25c.05-.11.09-.19.15-.25l.06-.03.11-.06.12.03.06.02.2.18c.12.14.23.29.14.5ZM82.53 73.41c.17.07.35.13.52.2.1.04.19.05.28.05h.05c.09-.01.18-.04.27-.08l.08-.04c.09-.06.18-.13.24-.24.05-.09.09-.18.12-.28s.06-.2.1-.29c0-.14-.04-.27-.09-.39s-.01-.03-.01-.03c-.05-.11-.13-.21-.21-.3s-.04-.04-.04-.04c-.09-.08-.19-.15-.29-.2l-.05-.02c-.11-.04-.23-.07-.34-.07H83a.6.6 0 0 0-.24.09c-.07.05-.12.12-.15.22l-.08.15-.13.13c-.1.08-.18.16-.24.26s-.09.21-.07.35c.04.28.2.45.46.55Zm.21-.87.02-.03.05-.06.04-.03.03-.02.03-.02.05-.01h.08c.15 0 .32.18.31.32l-.1.19-.2.09h-.02c-.16 0-.32-.16-.33-.31l.03-.11ZM75.04 77.11c-.11-.24-.29-.34-.56-.35-.1.03-.24.03-.3.09-.26.25-.5.52-.74.79-.09.11-.08.25.03.36l.16.06.17-.06c.09-.06.18-.12.28-.17l.16-.04h.03l.12.05.03.03.07.17c.01.13-.02.26-.05.39l-.11.24-.02.17.02.05.04.09.04.04.07.05h.07l.11.03c.43-.03 1.01-.52.78-1.09-.12-.3-.26-.6-.4-.9M66.2 76.56c-.06-.23-.19-.39-.44-.43l-.62-.09H65l-.22.07-.03.03-.07.07-.09.14-.18.14-.04.03c-.28.07-.33.31-.38.52-.03.11-.01.21.03.3s.11.16.21.2c.17.07.34.13.52.18s.36.1.53.15.1-.01.1-.01c.56-.11.97-.73.83-1.3Zm-.73.46-.04.05-.06.08-.05.03-.09.06h-.06l-.09.03-.12-.04a.56.56 0 0 1-.2-.23l-.03-.15.01-.06.02-.07.02-.04.05-.07.04-.03.06-.04h.04v-.01h.08c.21 0 .46.2.45.35l-.04.14ZM69.54 78.9c-.11-.02-.19-.01-.27 0l-.11.02-.13.07-.07.06-.07.15-.02.08c0 .09 0 .2.03.32v.05l-.17.06h-.06l-.07-.02h-.04l-.12-.08-.16-.07h-.06l-.2.04c-.16.11-.16.27-.11.44v.04l.06.18.08.23c.03.11.04.22.01.34l.13.27.14.02.18-.05c.22-.18.41-.39.6-.6l.11-.16.07-.18.08-.21.15-.16c.12-.11.21-.28.27-.43.07-.19-.05-.34-.25-.37ZM64.81 79.86c-.04-.12-.09-.24-.16-.35-.11-.18-.29-.33-.45-.46l-.21-.07-.22.08c-.15.1-.21.26-.15.43.1.32.24.61.54.79.13.08.27.13.34.16h.11l.08-.02.08-.04.05-.03v-.02l.04-.05.02-.03v-.13l-.08-.26ZM66.29 79.19h-.23l-.11.06-.05.03h-.01l-.09.1-.04.05-.08.18v.14l-.01.03c.02.26.03.5.05.73v.02c.01.13.08.25.22.25l.16-.03.12-.08c.12-.18.22-.38.32-.57l.11-.2c.12-.26-.07-.59-.35-.68ZM67.45 79.05l-.08.02-.08.02h-.03l-.04.02-.1.18v.03c0 .16.15.32.34.36h.07l.14-.04.07-.02.1-.18-.11-.24a.57.57 0 0 0-.29-.18ZM51.47 70.14l.05.03h.14l.15-.06.06-.04c.06-.06.1-.13.12-.23a.84.84 0 0 0-.06-.41c-.17-.46-.33-.93-.53-1.38-.21-.49-.46-.97-.7-1.45l-.16-.23c-.18-.2-.43-.29-.73-.31l-.41.06c-.14.01-.26.07-.29.22l.04.19.18.13c.11.03.21.08.3.14.17.11.3.26.41.43v.02c.07.09.11.19.15.29.26.65.52 1.3.74 1.96.08.25.24.41.41.57zM50 68.5a2 2 0 0 0-.22-.4l-.18-.12h-.23a.42.42 0 0 0-.19.43c.03.11.06.21.12.3.29.42.48.88.65 1.36.04.11.1.23.19.3l.29.06.03-.03.17-.2c-.03-.12-.04-.18-.07-.24-.19-.49-.37-.98-.56-1.47ZM55.96 74.96l.17-.02c.15-.06.23-.16.24-.33-.07-.23-.12-.46-.2-.69l-.17-.23-.23-.1-.22.06a.37.37 0 0 0-.19.42c.07.29.19.55.39.78zM83.22 65.2l-.14.04-.07.02-.13.16c-.07.17-.13.35-.14.53l.04.19.04.06.07.11.07.05.1.07.08.02.11.03c.2 0 .3-.16.3-.49v-.07h.02c-.02-.15-.03-.3-.07-.45-.04-.14-.11-.27-.29-.27ZM65.41 43.42c.05.1.13.18.22.25h.01l.18.07h.05l.1-.04.04-.03.1-.16c.04-.1.06-.21.08-.32.11-.48.43-.83.77-1.16l.22-.13.15-.02h.04l.12.13c-.05.17-.21.24-.33.34-.16.13-.33.27-.44.43-.11.17-.15.31-.14.46q.015.21.21.45l.17.26c-.14.22-.34.25-.53.28h-.07l-.16-.06-.02-.02-.12-.13-.22-.06-.14.19.06.28.16.21.06.05.16.11.07.03a.772.772 0 0 0 .62-.03c.12-.05.23-.09.35-.11h.11c.1-.03.2-.04.3-.04l.19.09-.13.2-.18.06-.07.02-.15.03h-.15000000000000002l-.17-.07-.16-.05h-.05l-.11.03-.04.02-.11.1-.02.08c-.02.13.05.27.21.35.11.05.23.1.34.13l.11.02h.02l.22.03h.2l.1-.02c.1-.02.21-.05.31-.1.13-.06.26-.18.31-.31.21-.47.5-.93.48-1.47l.02-.09c.16-.45.15-.93.18-1.4 0-.13-.02-.26-.07-.38-.09-.22-.02-.39.15-.53.14-.12.29-.24.43-.35.26-.2.37-.48.45-.78.05-.19-.02-.37-.16-.51l-.17-.12-.06-.02h-.19c-.18.04-.22.19-.22.35 0 .28-.18.43-.4.5-.1.04-.22.05-.33.06h-.19c-.12-.02-.23-.03-.35-.03h-.04c-.14 0-.28.02-.41.04l-.11.02c-.14.03-.28.06-.42.1s-.29.1-.42.18c-.36.23-.56.54-.48.98-.47.21-.72.89-.6 1.41l.04.19ZM68.79 46.63h-.03c-.1.1-.19.2-.28.3l-.16.23a1.6 1.6 0 0 0-.12.37c-.06.27-.08.55-.07.82 0 .2.08.39.24.49l.18.07c.21.03.43.06.64.07.15 0 .31 0 .46-.02a.9.9 0 0 1 .33 0l.1.02c.1.03.2.07.29.16l.21.12h.07v.01H71l.25.06c.17.09.17.29.01.4l-.2.08-.21-.11-.15-.18-.18-.12h-.05l-.21.01c-.16.06-.3.15-.31.34-.02.19.08.31.24.39l.12.06c.22.08.47.05.66.24l.26.02c.18-.04.36-.08.53-.15q.18-.075.33-.18c.25-.16.46-.36.64-.58.1-.12.19-.24.29-.36.15-.2.15-.4.09-.6l-.09-.24-.15-.17-.09-.1-.11-.03-.17-.03-.09-.02-.23-.02h-.1c-.09-.04-.18-.08-.26-.15l-.19-.08h-.04l-.2.01-.19.05-.23.06c-.14.04-.29.06-.43.06-.15 0-.29-.02-.44-.07l-.26-.06h-.18q-.135 0-.24.06l-.04.03a.6.6 0 0 0-.16.24c-.04.11-.08.22-.11.33l-.2-.03c-.15-.04-.16-.11-.13-.32.03-.27.08-.53.18-.77.05-.12.11-.23.19-.33l.03-.05c.07-.11.09-.22-.01-.34l-.19-.08-.2.08ZM65.43 46.5l.22.1c.35.09.51.31.61.65.13.46.32.91.5 1.35l.09.13.05.04.09.07.06.03.1.04h.06l.11.02.05-.04c.11-.06.17-.17.17-.38l-.02-.17q-.03-.21-.09-.42c-.03-.11-.08-.22-.12-.33-.12-.28-.26-.55-.42-.82-.07-.12-.15-.22-.23-.32-.25-.29-.57-.49-.92-.64l-.2-.09h-.11l-.19.06-.03.03-.15.18-.02.2.17.18.21.13ZM70.41 43.45l.1.05.12.05h.05l.15-.06.1-.16-.04-.22-.06-.2c-.04-.12-.07-.24-.11-.37-.05-.16-.09-.32-.16-.46l-.11-.14-.05-.02h-.03l-.06-.03-.05.01h-.04l-.05.03-.11.13c-.07.13-.08.29-.12.43 0 .29.11.51.27.71l.21.24ZM70.8 43.84l-.07.06v.07l-.03.19.06.23c.02.1.04.21.08.31l.1.16.05.02.12.03h.01l.08-.04c.08-.04.13-.1.15-.2.01-.06.01-.13.02-.26l-.05-.23-.05-.19-.15-.19-.06-.02-.16-.03-.1.08Z" class="cls-2"/><path d="M127 109.97 113.27 86.2 63.5 0 13.73 86.2l-.28.48L0 109.97h.02L0 110h127l-.02-.03zM57.52 96.6l-.89 1.75-.34.67-.14.29-.2.38-.21.42v.01l-.16.32-.2.39-.2.38-.1.2-.21.41-.2.39-1.21 2.38h-4.94l-.13-2.55-.02-.43-.02-.43v-.27l-.04-.43-.02-.43-.2-3.93h-.19c-.19.81-.35 1.59-.66 2.36l-.67 1.62-.17.41-.17.41-.1.24-.23.57-.21.51-.98 2.36h-4.82l-.66-3.42-.09-.45-.09-.45-.04-.22-.09-.44-.1-.5-.79-4.15v-.06l-.11-.49-.09-.46-.19-.98-.11-.55-.1-.52-.1-.52-.22-1.15-.08-.43-.08-.42-.08-.4h5.88v.21l.02.16.02.45.02.45v.03l.04.74.02.47v.06l.02.4v.03l.03.44v.02l.05.94.05.92v.14l.03.42.02.41.02.39.04.73.04.71.05.92.02.29h.12l.02-.08c.08-.29.16-.58.25-.87l.12-.44c.09-.28.2-.56.3-.84.04-.1.07-.21.11-.31l.12-.33.05-.12v-.03l.18-.39.07-.18.07-.16.05-.12.12-.3.08-.2.09-.22.09-.22.35-.84.32-.77.16-.38.19-.46.18-.44.07-.18.13-.3.19-.47v-.02l.05-.11.18-.42.02-.06.02-.06h4.35l.05.67.02.26.04.56.04.51.03.43.05.76.03.43.03.43v.21l.06.61.03.49.03.43.03.43v.21l.05.46.03.45.14 1.98h.12c.18-.74.4-1.5.66-2.24.05-.15.09-.3.14-.44l.03-.07.16-.4.44-1.1.16-.41.16-.4.02-.05.18-.45.14-.35.02-.06.14-.34.17-.43v-.03l.28-.66.02-.06.02-.05.1-.28v-.02l.06-.13.16-.4.12-.29.26-.66h5.9l-.06.12-.4.77-.64 1.26q-.06.18-.15.3l-.33.65-.64 1.26-.19.38-.03.07-.1.19-.07.13-.04.09-.11.21-.13.25-.25.49-.33.65-.2.39-.2.4ZM41.16 84.77h-1.28c-.11-.04-.22-.06-.34-.08h-.12l-.15-.06c-.1-.04-.17-.11-.17-.21l.11-.19.24-.09.16.03c.51.22 1.05.34 1.55.59Zm-.21-1.23.14-.05h.03l.21.09c.12.07.26.1.38.16.15.07.3.13.43.22.18.13.33.29.5.43l.02.02c.17.14.22.24.18.35s-.77 0-.77 0l-.02-.09c-.14-.27-.3-.56-.62-.64-.28-.07-.4-.23-.47-.5Zm-1.28 3.02-.02.21zm3.28-18.52c.1.44.2.87.27 1.32.06.38.07.76.12 1.14l.06.44c.02.15.05.29.09.43.06.23.11.45.1.66s-.06.43-.19.64c-.07.11-.1.24-.16.36l-.1.13-.03.02-.07.03-.07-.02h-.04l-.11-.13c-.08-.11-.14-.25-.17-.38-.08-.4-.13-.8-.22-1.2-.12-.56-.19-1.12-.2-1.69 0-.21-.06-.41-.09-.62-.05-.29-.09-.58-.14-.87.01-.33.06-.64.17-.92.1-.29.26-.55.5-.79l.24-.14c.03.1.09.2.09.29 0 .13-.04.26-.07.39-.08.31-.05.61.02.91m.7 15.54.08.02.02.02c.08.06.12.2.05.29-.06.08-.15.15-.24.23l-.07.07-.04-.23.02-.15.02-.1.17-.15Zm4.23-20.74c-.1-.06-.2-.1-.3-.13l-.1-.02-.21-.03h-.1c-.13 0-.27.02-.4.06-.14.04-.29.06-.44.09.13-.38.25-.71.36-1.05l.04-.09c.33-.45.54-.97 1.02-1.31.21-.14.3-.36.33-.59.04-.32.21-.53.46-.68.34-.22.63-.46.83-.82l.17-.19.22-.16.06-.04c.13-.09.26-.18.39-.29.14-.12.28-.24.39-.4.19-.25.31-.51.25-.82-.06-.34.05-.59.3-.82.17-.15.28-.36.44-.52.16-.17.32-.33.51-.46.2-.14.34-.29.34-.56 0-.25.42-.62.67-.63l.18.1.11.24c.07.25.23.38.47.47.22.08.42.18.65.25.26.07.53.14.8.15.33.01.62.1.91.26l.1.06c.41.24.83.47 1.24.71.09.05.18.13.27.19.13.09.24.2.38.25s.26.12.37.2l.23.18.16.11.18.08c.19.08.38.14.57.21s.38.14.56.23c.37.18.72.42 1.08.62.33.19.67.37 1 .56l.09.04.13.02.14.02h.05l.17-.12.02-.12c.03-.14 0-.31-.14-.41-.17-.13-.37-.23-.55-.35-.55-.38-1.11-.74-1.73-1.02-.26-.11-.54-.2-.79-.31-.13-.06-.25-.14-.34-.24a.73.73 0 0 0-.46-.23c-.15-.02-.3-.08-.43-.14-.19-.09-.36-.2-.54-.31l-.13-.1c-.35-.49-.88-.78-1.32-1.17-.1-.09-.18-.22-.25-.34l.04-.2.21-.03c.25.14.48.29.72.46.12.08.22.18.32.28.13.12.27.21.46.23.12.01.24.11.35.17.19.12.36.25.55.37l.24.09h.15l.06-.03.12-.13c.05-.14 0-.26-.12-.34s-.25-.15-.36-.23c-.53-.42-1.05-.86-1.58-1.28-.21-.17-.42-.36-.7-.42l-.16-.11c-.31-.44-.62-.88-.91-1.33-.07-.11-.09-.27-.11-.41-.04-.44-.07-.87-.1-1.31l.03-.15c.16.02.16.13.17.22.03.34.14.66.29.97.09.18.13.39.19.59.06.23.19.39.39.5l.22.07h.02l.16-.07c.13-.11.23-.24.18-.43a3 3 0 0 1-.09-.41c0-.06.02-.12.04-.26.07.11.12.16.14.22.04.11.07.23.11.35.1.3.18.36.5.37q.35.01.43.37l.07.17.03.04.08.08.05.03.09.04h.07l.15.01h.18l.06.03.14.14.14.26c.05.1.11.18.19.23l.09.03.21.05.2.05.08.02.17.2c.07.12.15.24.24.35l.17.15c.43.1.67.48 1.01.7l.24.1h.1l.05-.02.02-.02.04-.03.03-.03.03-.07v-.17a.65.65 0 0 0-.21-.28c-.38-.31-.76-.62-1.05-1.03l-.18-.16-.09-.04-.13-.06c-.1-.04-.18-.08-.26-.14l-.2-.21c-.09-.13-.22-.25-.33-.36-.22-.23-.45-.45-.68-.67-.14-.13-.31-.25-.45-.38-.15-.14-.32-.27-.43-.44-.27-.41-.53-.83-.93-1.14-.18-.15-.31-.37-.45-.56-.32-.42-.64-.84-.94-1.27-.18-.25-.3-.54-.34-.85v-.19l.02-.03.11-.06.16.02c.39.1.73.28 1.07.5.23.15.47.28.7.42.14.08.28.17.43.25.11.06.21.13.33.15.28.05.48.19.65.41.07.09.15.17.25.24s.2.1.33.12q.18.015.3.12c.08.06.14.15.19.26l.16.2c.1.1.22.18.36.23s.15.01.15.01l.21-.1c.07-.09.06-.19.02-.28l-.02-.06c-.07-.1-.13-.2-.2-.3-.11-.15-.23-.28-.41-.36-.12-.05-.21-.19-.29-.31-.22-.33-.5-.53-.87-.7-.45-.21-.9-.51-1.16-.97-.08-.14-.18-.23-.3-.32-.14-.1-.28-.19-.41-.3-.2-.18-.43-.34-.66-.5l-.02-.02-.22-.11h-.03l-.09-.03-.17-.02-.17.02h-.08l-.2.08h-.01l-.04.02-.24.17-.2.09h-.04l-.08-.03-.04-.02-.09-.15a1.4 1.4 0 0 1-.05-.73q.03-.18.09-.36l.15-.16.05-.05c.12-.1.17-.18.18-.27l-.07-.19-.04-.07c-.07-.1-.15-.2-.22-.3l-.13-.18c-.07-.1-.14-.2-.05-.35l.3.09h.21l.14-.11c.09-.13.07-.26-.02-.36l-.06-.05c-.11-.11-.22-.21-.35-.29h-.01c-.27-.19-.36-.39-.27-.77.11.05.23.08.32.14.16.1.31.21.46.32l.21.15c.17.11.36.19.54.28l.04.02.23.11.36.18c.26.12.51.24.78.33l.2.02.22-.03.16-.1c.08-.11.08-.24-.02-.36l-.1-.09a.96.96 0 0 0-.47-.27c-.1-.02-.19-.06-.29-.09a9 9 0 0 1-.66-.27l-.02-.04-.12-.2-.09-.15-.03-.03-.1-.04h-.03l-.15.04-.2.05h-.06l-.11-.03-.05-.02-.15-.12a2.3 2.3 0 0 0-.35-.29c-.09-.06-.19-.11-.29-.16a.4.4 0 0 1-.2-.23l.06-.27.07-.04h.01l.17.09.16.08c.13.07.26.14.4.19s.17 0 .17 0h.05l.15-.14.02-.1a.28.28 0 0 0-.07-.26l-.02-.02c-.1-.11-.19-.22-.31-.3a.6.6 0 0 0-.33-.13c-.25-.02-.55-.42-.53-.67l.08-.14.06-.1c.19-.18.25-.34.18-.52l-.13-.21-.14-.12-.11-.1c-.24-.22-.23-.39.08-.62.09.22.25.37.43.49.19.13.41.24.61.37l.23.12c.51.1.92.41 1.36.64.12.06.23.13.36.16h.13l.19-.04.03-.02.11-.13v-.05c.04-.15-.04-.3-.23-.4h-.01l-.15-.07c-.55-.14-1.03-.43-1.53-.67-.32-.16-.63-.36-.93-.55l-.13-.07h-.04v-.01l-.09-.02h-.05l-.2.06c-.07-.19-.15-.36-.2-.54l-.03-.12-.02-.13.02-.12.07-.12.04-.18-.07-.15-.12-.19v-.06l-.04-.11v-.04l.04-.08.04-.03.07-.05h.07l.12-.02c.1 0 .2.03.29.05.3.08.57.23.85.37.23.11.46.22.68.34.25.14.48.3.73.44.19.11.38.21.58.29h.24l.17-.12.03-.09c.04-.11.04-.25-.06-.37l-.14-.14-.16-.11c-.39-.18-.79-.33-1.18-.49l-.15-.06c-.28-.16-.59-.3-.84-.5-.26-.21-.55-.32-.86-.4-.28-.07-.49-.24-.66-.46-.04-.05-.06-.13-.11-.24.12 0 .22.04.31.08l.24.14c.1.06.19.1.29.14s.21.06.32.08c.15.03.3.12.44.19.13.07.25.18.39.23.25.1.52.14.73.34l.22.07h.06c.1 0 .2.02.29.04l.1.02c.11.04.21.09.32.15.1.06.22.1.34.12h.14l.05-.03.12-.12c.07-.13.03-.25-.07-.33-.17-.13-.36-.24-.55-.34-.17-.09-.36-.15-.54-.22l-.12-.05c-.35-.05-.64-.21-.92-.41-.14-.1-.33-.11-.49-.18-.18-.07-.35-.16-.53-.25-.13-.06-.25-.13-.38-.2-.12-.07-.26-.12-.25-.29l.07-.03c.28.11.56.23.83.35.12.05.24.12.37.15.57.15 1.11.4 1.65.64l.17.07.05.02.16.03h.04l.17-.03c.34-.13.39-.37.16-.65l-.04-.03c-.17-.19-.37-.31-.59-.38-.22-.08-.45-.12-.68-.18-.34-.08-.67-.21-.98-.35s-.59-.33-.89-.49l-.25-.08-.13-.04c-.28-.1-.42-.29-.43-.61l-.02-.24c-.01-.13-.03-.25-.04-.38l.02-.22.02-.05.06-.1.05-.04.1-.04h.27c.16.04.32.1.48.15l.11.04c.31.09.63.17.95.25.33.08.66.16.99.25.37.11.74.21 1.13.29l.08.02c.57.1 1.13.29 1.67.49.49.18.98.36 1.5.49.45.11.89.18 1.36.2.39.02.77.16 1.15.26.31.08.62.12.94.12.19 0 .39.06.57.13.53.22 1.05.43 1.62.54.9.18 1.75.49 2.53.98.18.11.39.2.6.26.63.2 1.19.51 1.69.94.36.32.76.56 1.2.74.21.09.37.22.54.37.23.22.48.41.71.63.15.14.29.3.43.45.25.29.48.59.75.87.25.26.45.54.57.88.14.39.29.78.43 1.17.18.49.28.99.31 1.51 0 .1.03.19.03.29 0 .17.02.35.04.53q.03.225.09.45c.16.6.23 1.2.12 1.82-.06.33-.02.68-.07 1.01-.08.52-.2 1.03-.3 1.54l-.02.13c0 .38-.12.72-.3 1.06-.36.67-.67 1.36-1.01 2.03-.1.19-.23.37-.35.56-.16.24-.31.48-.48.7-.08.11-.18.21-.27.31l-.1.11c-.09.09-.18.18-.25.28-.08.11-.15.22-.19.35l-.1.2-.05.05-.09.09-.07.03-.11.05h-.09l-.15.02h-.08l-.21.03-.11.02c-.12.04-.23.08-.35.14-.2.1-.3.25-.39.43-.06.16 0 .25.17.26h.11l.21-.02c.17-.03.34-.08.51-.12l.26-.03.12.02.19.05.23.09h.08l.05.02h.1v.01l.15-.03.08-.02.21-.11.03-.02.21-.07.22.11.2.13h.08l.2.03.17.03.1.02.12.09.07.06.07.14.03.07v.25c-.09.24-.23.45-.34.68-.18.37-.38.74-.54 1.12l-.02.05c-.08.22-.03.38.11.44l.1.02h.02l.16-.06.04-.03.14-.2.06-.12c.14-.41.43-.71.69-1.04l.17-.23.16-.12h.03l.07.03.03.02.08.15c.04.14.05.28.06.42 0 .16.02.31.14.43l-.23.04-.09.02c-.08.05-.15.11-.2.21-.22.35-.45.7-.66 1.05-.07.11-.1.23-.12.35s-.02.25-.02.38.05.17.05.17l.15.1h.19l.12-.12.11-.21.03-.05c.09-.37.31-.67.51-.98.1-.16.2-.33.24-.52.03-.13.03-.26-.03-.4.13 0 .26 0 .4-.01h.04l.16.05.09.03.06.13.06.14v.03c.01.12.02.21.03.28v.03c.05.17.14.22.39.28l.12.03c.14.03.21.11.24.24l.02.13c.02.13.04.26.06.38l.02.06.02.06.05.13.08.03.18.05.15.02h.08l.09.03.24.16.13.13c.19.19.38.38.53.59.28.38.54.77.9 1.08.09.08.16.18.23.28.11.17.22.33.36.47.13.14.29.27.46.37.29.17.52.41.65.72l.06.17.01.22v.05l-.06.09-.03.03-.11.04h-.03l-.22-.03-.17-.04c-.23-.06-.46-.09-.7-.11-.27-.01-.53-.13-.8-.15q-.705-.045-1.41-.03c-.2 0-.3.09-.28.29.03.36-.11.63-.3.91-.09.14-.13.3-.2.45-.05.1-.09.19-.14.29-.08.16-.15.32-.23.48-.07.15-.17.28-.23.44-.06.17-.13.33-.22.48-.06.09-.14.17-.21.26l-.12.15-.16.25-.04.08c-.23.55-.58 1.03-.93 1.51-.09.12-.16.24-.24.36l-.03.04c-.24.34-.48.68-.74 1l-.21.14h-.09l-.2.03c-.37-.03-.74-.03-1.11-.06-.22-.01-.43-.06-.65-.08s-.43-.03-.65-.03l-.25.02c-.18-.05-.36-.12-.55-.18l-.2-.06c-.18-.06-.24-.18-.23-.35.03-.33.03-.66.11-.98.13-.48.08-.92-.15-1.34a.95.95 0 0 1-.05-.91c.14-.34.12-.69.06-1.04-.02-.13-.05-.26-.08-.39a1.5 1.5 0 0 1 0-.84l.05-.23v-.23c-.02-.15-.06-.3-.11-.45-.13-.36-.16-.72-.05-1.09.06-.2.06-.41.07-.62.01-.34-.14-.6-.41-.81l-.24-.09h-.07l-.17.07-.05.04c-.06.06-.1.13-.11.23-.02.22 0 .44.02.65.01.12.05.24.09.35.08.23.1.47.05.71-.07.33-.07.66.02.98a1.5 1.5 0 0 1 0 .84c-.09.3-.06.59.04.87.11.32.16.62.05.96-.08.25-.05.52.08.77v.03c.08.53.25 1.04.19 1.58-.02.17-.08.35-.07.52 0 .09.02.18.04.27l.09.26.04.18-.02.04-.06.11-.15.07-.15-.04-.25-.14-.07-.04a.56.56 0 0 0-.27-.08h-.02l-.1.02h-.05l-.14.1-.05.04-.19.16-.22.22-.03.03c-.27.35-.59.64-.92.92-.09.07-.15.17-.21.27l-.06.1-.11.16c-.08.11-.17.2-.29.28l-.02.02-.13.1-.19.14-.21.24c-.08.11-.16.22-.21.36-.04.11-.18.22-.3.28-.39.19-.73.44-1.05.73l-.2.18-.15.13c-.08.09-.21.16-.34.19-.17.04-.31.11-.43.2-.13.09-.23.21-.33.34-.12.15-.24.3-.38.43s-.29.24-.47.33c-.17.08-.31.24-.44.39-.39.41-.78.79-1.32 1-.18.07-.31.29-.45.45-.16.19-.29.42-.47.58-.31.27-.47.56-.36.98.04.17.07.34.1.5.03.14.08.28.15.41v.25c0 .12-.04.25-.06.37-.03.12-.05.25-.07.37v.06c-.06.13-.08.29-.26.31h-.03l-.23-.09-.14-.23v-.23c.02-.2 0-.36-.08-.49a.85.85 0 0 0-.39-.32 1.2 1.2 0 0 1-.42-.31c-.11-.13-.2-.28-.26-.45-.04-.11-.07-.23-.09-.35-.05-.47-.09-.94-.15-1.4-.06-.41-.13-.82-.23-1.23-.04-.15-.14-.3-.24-.43-.07-.09-.12-.19-.17-.29-.05-.11-.08-.23-.1-.37-.02-.19-.05-.37-.1-.54-.05-.2-.11-.4-.2-.59-.06-.12-.12-.24-.19-.35-.13-.19-.22-.41-.31-.61a.62.62 0 0 1 .03-.63c.19-.31.21-.64.11-.98-.22-.77-.46-1.53-.65-2.31-.14-.58-.21-1.19-.31-1.78-.05-.31-.09-.63-.16-.94-.06-.26-.04-.5.06-.75.15 0 .19.13.24.23.06.12.12.23.19.34l.13.12h.05l.16.02.16-.08h.01l.1-.17c.03-.1.03-.19 0-.28l-.14-.24-.1-.1c-.47-.49-.99-.9-1.68-1.1-.18-.05-.36-.11-.54-.17a4.7 4.7 0 0 1-1.19-.57l-.14-.1-.18-.14c-.08-.07-.17-.13-.26-.17h-.02l-.11-.03-.21-.04-.21.03-.11.02c-.1.04-.19.09-.28.16-.32.29-.23.72.19.83.13.04.26.08.4.12l.11.03c.15.04.3.06.45.07h.16c.12 0 .25.01.36.05.53.19 1.05.38 1.57.58.1.04.23.1.19.23l-.08.14-.13.12-.24-.03c-.13-.08-.25-.18-.36-.28l-.21-.12h-.07l-.24-.01c-.11.03-.22.03-.32.02h-.09c-.11-.04-.21-.08-.31-.15-.09-.06-.19-.09-.28-.13l-.18-.08-.17-.02c-.13-.02-.26-.05-.4-.04-.12 0-.24-.02-.36-.05-.11-.03-.21-.05-.32-.05h-.03c-.09 0-.17.01-.26.04h-.17l-.24-.03c-.15-.04-.29-.06-.43-.07h-.12c-.1 0-.2.02-.29.05l-.12.03c-.13.05-.26.11-.38.19-.32.22-.68.33-1.06.38h-.01c-.2.03-.4.03-.59.08l-.17.06c-.11.04-.21.09-.29.17-.17.18-.36.22-.59.22-.11 0-.22 0-.32.01q-.195.015-.39.06c-.29.08-.38.28-.35.59.01.15.02.3.04.44.02.19.03.37.05.56.01.16.03.31.04.47.01.15 0 .31-.02.46-.09.45-.05.89.04 1.34.04.22.07.44.11.66v.05l.06.19.13.16h.01l.05.02.12.04h.09l.02-.01h.05l.15-.13.13-.19.06-.08.05-.06c.13.12.2.27.24.43l.04.11.12.61c.07.28.09.37.22.44l.15.07.07.03v.04c-.04.14-.07.29-.09.43l-.03.16c-.02.11-.04.22-.07.33a1 1 0 0 0 .12.73c.09.16.21.3.37.41.34.25.65.52.88.87l.06.08c.3.22.43.5.39.88-.01.11.07.26.16.34.26.23.26.48.14.77-.1.24-.16.49-.04.73.06.13.14.26.25.34.44.31.87.64 1.35.89.31.17.69.21 1.03.32.25.08.5.17.74.26l.09.04c.49.1.98.27 1.47.28.66.02 1.28.17 1.9.33.4.1.8.24 1.2.33.17.04.34.05.52.05h.23l.17.01h.11l.13.06.08.03.12.09.06.05.15.2.11.17c.09.1.25.15.2.34-.06.22-.13.42-.34.54l-.15.07c-.29.12-.59.23-.88.36l-.18.04h-.04l-.08-.02h-.04l-.11-.11-.19-.16-.06-.03-.18-.04h-.05l-.22.03c-.14.04-.31.02-.46.03-.3.02-.57.12-.68.43-.13.35-.36.62-.59.9-.32.39-.59.82-.89 1.22-.12.16-.26.3-.41.42-.1.08-.2.17-.28.27h-2.76c.29-.13.58-.25.84-.42l.07-.07c.11-.13.09-.31-.06-.38h-.3c-.1.06-.2.09-.3.11h-.33l-.32.03h-.07l-.16.07-.11.1c-.08.09-.14.2-.12.29l.05.13.04.03.08.07.04.02h-2.12v-.03l.03-.03c.19-.31.32-.63.2-1-.1-.31-.18-.63-.3-.94-.06-.16-.15-.31-.25-.46l-.15-.14-.06-.02h-.19c-.16.03-.21.17-.22.32 0 .14 0 .29.02.42s.05.25.06.37.02.25.02.37q0 .18-.06.36c-.03.12-.08.24-.16.36-.07.11-.08.26-.11.41h-1.42v-.08l-.03-.18c-.05-.23-.01-.48.02-.72.05-.28-.02-.5-.27-.64-.19-.1-.38-.22-.58-.31-.32-.15-.37-.33-.15-.62.13-.17.24-.36.37-.53l.21-.2c.11-.09.2-.17.16-.33-.04-.15-.11-.29-.28-.34l-.1-.02c-.36-.09-.43-.28-.2-.67.11.08.23.15.33.24.12.1.23.2.35.3.26.22.53.43.77.66.15.16.34.23.53.28l.14.04.16-.03.06-.02.14-.17v-.13c0-.09-.03-.17-.12-.24-.23-.17-.46-.34-.68-.52-.31-.26-.62-.52-.92-.79-.31-.27-.5-.64-.67-1-.11-.23-.06-.45.1-.64l.13-.11h.04l.09-.04.09.03h.04l.12.14c.09.12.15.27.21.41.05.11.08.23.12.34l.1.16.06.02.13.04c.1 0 .17-.06.22-.14l.06-.1.03-.19q0-.36-.06-.69l-.02-.06c-.02-.1-.05-.19-.08-.28-.03-.12-.05-.24-.1-.36-.06-.15-.14-.29-.22-.43l-.08-.13-.02-.03-.14-.07h-.07c-.16.04-.24.18-.26.34-.02.13-.02.25-.18.27l-.13-.04-.05-.02-.11-.14c-.2-.29-.3-.6-.21-.96v-.1c.02-.11 0-.22-.02-.32-.17-.51 0-.94.32-1.31.1-.11.16-.22.21-.33.1-.24.09-.48.02-.74l-.07-.21v-.03c-.23-.31-.26-.62-.09-.98.09-.2.07-.48.03-.71-.05-.3-.03-.59.04-.88.02-.11.05-.23.07-.34.03-.12.05-.25.08-.37.05-.25.05-.5-.04-.75-.15-.44-.14-.87-.02-1.33.15-.59.25-1.2.35-1.8v-.18l-.03-.05-.05-.09-.05-.04-.09-.04h-.07l-.16-.01c-.27.05-.52.16-.78.25l-.17.09-.17-.06-.02-.17c.23-.33.4-.72.77-.92.39-.21.76-.43 1.16-.62.34-.16.7-.23 1.08-.27.33-.03.66-.16.98-.26.13-.04.26-.14.26-.31s-.11-.27-.25-.36Zm6.18-11.5.16-.1h.05l.11-.04h.03c.09 0 .18.04.28.1.29.2.58.74.58 1.15 0 .18-.03.42-.29.52l-.19.04-.22-.06-.05-.03-.18-.16c-.18-.25-.35-.5-.49-.77-.13-.25-.06-.43.2-.65Zm30 14.83c-.02.31-.06.61-.11.91-.02.13-.02.26-.05.39-.04.26-.15.5-.25.75l-.21.17-.19-.15-.12-.24c-.06-.13-.04-.24.09-.34.11-.09.17-.22.19-.36.01-.11.01-.22-.03-.32l-.05-.08-.04-.07-.05-.04-.09-.08-.07-.04-.1-.05h-.07l-.11-.03-.16.05c-.11.06-.16.18-.12.34l.07.17.09.22.1.23-.24.09h-.14l-.16-.07-.05-.05a.47.47 0 0 1-.08-.28c0-.27-.01-.52-.16-.76l-.04-.15v-.17c-.05-.24-.07-.48-.13-.71l-.1-.19-.03-.03-.17-.06-.17.03c-.14.04-.27.07-.41.11-.23.33-.19.66.03.98.07.1.14.2.21.29.18.22.17.47.11.72l-.07.14-.03.02-.07.03h-.04l-.18-.08c-.34-.26-.68-.52-1.02-.77a.6.6 0 0 0-.27-.11h-.15l-.07.03-.08.05-.05.04-.03.1v.05l.02.2c.09.22.22.41.46.49.36.12.66.39 1.06.42l.22.14c.4.34.83.61 1.34.75.16.05.32.15.46.25.09.06.14.18.23.31-.3.11-.56.19-.81.29l-.18.1-.15.09-.07.03-.13.05h-.09l-.14.03h-.02c.1-.1.15-.17.21-.21.17-.13.34-.3.29-.52-.06-.23-.3-.27-.51-.31-.12-.02-.24-.02-.36-.02-.26.01-.35.12-.33.38l.03.19-.09.19-.22.1-.07.02-.2.04h-.06l-.24-.04c.01-.18.15-.24.26-.32s.23-.14.3-.24c.14-.18.09-.33-.12-.42l-.17-.06h-.05l-.13-.03c-.27.01-.55.04-.82.08-.2.03-.35.18-.47.35l-.18.21-.07.05-.14.09-.09.03-.14.04h-.11l-.21.01h-.32c-.28-.01-.37-.1-.31-.37.04-.17.12-.35.21-.5l.04-.06q.24-.345.45-.72c.23-.4.43-.81.73-1.17l.14-.17.16-.24.08-.22c.11-.46.37-.84.62-1.23l.15-.13.04-.04.2-.07h.05l.09.03.04.02.12.14.06.12.1.18.03.04.07.07.04.02.1.02h.26c.1-.44.16-.9.33-1.32a.29.29 0 0 0-.16-.36l-.15-.02-.2.1-.17.1h-.02l-.11-.06c-.12-.13-.1-.29.06-.39l.2-.09h.06l.17-.04c.26.03.52.1.76.2q.435.18.09.51c-.23.23-.27.52-.26.82 0 .16.08.3.25.35l.17-.02.06-.02.14-.16c.13-.22.28-.41.43-.63l.23.1c.09.06.18.13.26.21l.14.14.24.16.17.03h.04l.03-.02.07-.03.04-.03.06-.08.02-.04.02-.17v-.06c-.03-.2-.05-.41-.2-.59l-.15-.24-.08-.23v-.04h-.01v-.19l.1-.17.09-.04h.02l.21.12.09.08.11.09c.18.13.23.3.2.52-.05.31-.08.62-.12.94-.03.21-.06.41-.08.62-.02.25.03.5.01.75Zm-4.94 10.85a.74.74 0 0 0-.28-.21l-.05-.02a.9.9 0 0 0-.32-.06h-.08l-.14.02-.09.02-.14.05-.08.04-.12.1-.06.05-.13.2c-.13.29-.23.59-.32.9-.09.32.08.56.32.73.23.16.5.27.78.42l-.16.17-.1.09c-.54.32-.78.84-.98 1.4-.03.1-.03.22-.03.33 0 .2 0 .39.01.59 0 .15.06.28.21.35l.11.02.13-.04.03-.02.11-.09c.27-.28.31-.63.27-.98-.05-.35.06-.58.33-.79.22-.17.42-.38.61-.6.22-.25.5-.43.79-.58.29-.14.5-.35.63-.64.05-.1.14-.23.23-.26.58-.19.98-.62 1.4-1.01.29-.27.57-.55.87-.8.18-.16.39-.28.59-.41l.25-.16c.22-.25.51-.37.81-.48.31-.12.58-.27.68-.65.05-.22.22-.39.45-.5.18-.09.34-.2.5-.32l.16-.16c.17-.34.47-.54.79-.71.37-.21.73-.44 1.02-.76.08-.08.18-.17.29-.21.21-.07.36-.2.5-.35.07-.08.17-.14.26-.19l.15-.03.17.1c.09.12.03.23-.06.32-.2.2-.4.4-.6.61-.18.19-.35.4-.35.69h-.16c-.64.04-1.17.26-1.47.87l-.2.2c-.09.06-.19.1-.29.15-.37.17-.66.42-.82.81a.57.57 0 0 1-.26.27c-.55.19-.93.52-1.04 1.06-.25.12-.48.2-.69.32q-.33.18-.63.42c-.17.15-.31.33-.47.5l-.21.2c-.39.17-.67.45-.87.82-.11.19-.25.32-.46.41-.37.15-.64.41-.86.74l-.15.17c-.4.21-.76.49-1.08.8-.13.12-.27.28-.31.44-.11.39-.16.79-.23 1.18-.02.14-.04.27-.1.39l-.04.05-.13.08-.18-.13-.03-.07c-.04-.09-.08-.19-.12-.29l-.07-.12-.05-.08-.05-.03-.1-.04-.1.02-.05.02-.16.15c-.06.07-.09.17-.12.26v.03c-.05.11-.07.24-.12.35l-.14.18-.04.03-.15.06h-.05l-.15-.01c-.11-.04-.21-.11-.31-.18-.16-.1-.3-.22-.47-.3-.68-.34-1.36-.67-2.04-1-.47-.23-.62-.77-.33-1.19.11-.16.25-.31.41-.41.19-.12.34-.27.49-.43.09-.1.18-.19.26-.3l.02-.05c.05-.1.08-.21 0-.32l-.14-.11h-.21l-.05.02c-.13.06-.27.12-.41.19-.28.13-.54.29-.66.63l-.13.15c-.36.35-.59.79-.8 1.23l-.09.24-.02.24c.01.16.08.3.21.44.12.12.29.19.45.26.68.28 1.37.54 2.04.83.4.17.79.39 1.19.55.26.11.47.26.69.43.14.11.29.2.45.29.1.06.21.11.32.15l.2.08h-9.72l.02-.06c.01-.09.01-.18-.02-.28l-.05-.26v-.23c0-.24.08-.45.24-.61.11-.1.24-.19.42-.24.28-.07.5-.2.7-.41.27-.28.58-.51.73-.88l.18-.19c.13-.18.3-.36.38-.56.08-.19.18-.35.35-.45.26-.15.47-.35.62-.62s.41-.42.69-.54c.38-.18.76-.35 1.13-.52l.14-.08.21-.12c.09-.06.13-.14.15-.24v-.13a.31.31 0 0 0-.28-.28c-.09-.01-.18 0-.28.02h-.14l-.27.09c-.23.07-.47.14-.71.18-.47.08-.79.37-1.1.67l-.14.17-.35.41c-.23.27-.44.55-.57.87-.04.1-.13.18-.19.27-.13.19-.25.39-.4.56-.09.12-.2.23-.33.3l-.19.02h-.05l-.16-.15-.07-.15-.12-.14-.04-.02-.08-.03h-.04l-.21.1-.04.03-.23.17-.13.05-.19.08h-.24l-.08-.01-.24-.11-.1-.07c-.13-.1-.27-.2-.41-.28a.6.6 0 0 0-.25-.1h-.04l-.09.02-.04.02-.08.07-.06.06c-.09.1-.2.17-.31.21-.1.04-.22.06-.34.06h-.16c-.13-.02-.25-.03-.37-.03h-.11c-.09 0-.19.02-.28.03l-.11.02a1.4 1.4 0 0 0-.37.14l-.18.05h-.02l-.17-.07-.04-.04-.11-.17-.02-.04-.04-.19c0-.2-.03-.39-.05-.59a1.6 1.6 0 0 1 0-.44l.02-.18-.03-.26a.4.4 0 0 0-.11-.22l-.03-.04-.05-.04-.13-.03-.18.02c-.19.05-.38.13-.57.15-.09.01-.18.02-.26.02h-.21l-.03-.02-.1-.08h-.01l-.03-.18v-.05c0-.08.02-.17.06-.28l.03-.17.04-.25c.03-.33.13-.65.31-.93.09-.14.23-.27.38-.35.51-.25.93-.62 1.32-1.03l.13-.11c.07-.09.17-.17.28-.24l.19-.14c.14-.09.28-.18.43-.27.11-.06.21-.14.3-.23l.12-.13c.2-.26.43-.47.7-.64.23-.15.42-.34.58-.57l.05-.06c.08-.12.21-.22.33-.31.19-.15.4-.28.59-.42.11-.09.25-.17.31-.29.14-.26.35-.42.58-.58l.23-.17.07-.07c.13-.13.25-.27.38-.41.09-.1.18-.19.28-.28l.14-.12c.26-.18.51-.38.71-.63.19-.24.44-.4.71-.52l.18-.09c.09-.04.17-.03.24-.01l.06.02.17.16.02.02c.12.18.11.27-.07.46-.15.16-.3.32-.44.48-.3.34-.3.71 0 1.04.06.06.17.1.26.11.18.03.37.05.55.06h.13l.19-.03c.09-.04.19-.12.23-.21l.04-.14v-.04l-.03-.07-.03-.03-.06-.04h-.05l-.11-.02h-.21l-.07-.03-.19-.14c-.16-.19-.08-.41.16-.48.1-.03.19-.04.26-.04h.02l.15.05.04.04.09.11.03.06c.03.07.06.16.08.27l.14.06c.11.03.19.02.27 0l.08-.02c.07-.04.13-.1.17-.19.07-.21-.07-.47-.28-.56-.27-.11-.54-.24-.8-.36l-.1-.06c.06-.11.14-.18.23-.25l.07-.04.21-.07.09-.02h.01l.25.05c.16.06.33.09.5.12.21.03.42.05.63.08.7.09 1.43-.01 2.12.22h.52c.24 0 .48 0 .72.02.27.02.54.06.82.08.27.02.54.05.82.06h.71c.17.01.35.05.51.1.16.04.31.06.47.07.09 0 .18.01.27 0h.24c.13 0 .26.01.38.04l.22.03h.06v.01h.02l.19.03c.14 0 .28 0 .41-.04.14-.04.27-.05.41-.06h.38c.13 0 .25 0 .38.02.21.02.42.04.63.05.13 0 .27.09.39.16.1.05.19.08.29.11h.08c.1.03.2.03.32 0 .16-.05.32-.06.48-.06.17 0 .35.02.52.06.14.03.28.04.43.03.17 0 .35-.02.51-.04h.25l.13.02.06.02.12.06.05.03.14.15c.14.21.12.33-.1.46-.3.18-.61.35-.88.56-.23.17-.42.41-.65.6-.17.14-.36.25-.53.38-.16.13-.33.25-.47.4-.27.32-.53.63-.92.82-.35.17-.65.42-.91.74-.2.24-.52.41-.8.56-.3.16-.59.33-.8.58-.07.09-.13.18-.18.3l-.06.07-.24.16c-.39.17-.71.39-.86.81l-.13.14c-.09.04-.19.08-.29.11-.09.04-.18.07-.29.11l-.16-.17-.11-.12.06-.15c.09-.26.01-.5-.17-.72Zm-.2 1.08v.08c-.05.22-.21.41-.41.43h-.09l-.05-.02-.07-.04-.05-.03-.07-.08-.03-.04-.08-.15-.03-.13c-.03-.28.17-.56.41-.57l.12.02.08.02.09.07.06.05.05.08.02.04.03.06.03.21Zm-.89 6.2c-.25-.08-.42-.24-.56-.44l-.06-.09-.06-.09-.02-.1c0-.1.09-.19.19-.25l.1-.04.2-.07.12.21c.13.27.16.55.09.86Zm-4.15 6.78-.02.03zm-7.25-6.48v.17h-4.17c0-.18-.06-.36-.16-.53v-.03c-.12-.21-.12-.44-.08-.67.03-.16.08-.32.13-.48l.05-.18.06-.16.02-.03.05-.06.04-.02.07-.03h.19c.59.04 1.18.1 1.76.14.12.01.24.02.36 0 .45-.09.91-.17 1.35-.29l.19-.03h.02l.18.05.05.03.16.16c.08.12.13.24.16.37.02.13 0 .26-.06.4l-.08.11-.13.17c-.07.11-.13.22-.16.34-.04.18-.03.38.01.59Zm-5.16-1.58.05.22c.06.22.08.43-.02.64-.06.13-.09.26-.1.39-.01.15 0 .3.02.45v.06h-3.81l.11-.14c.07-.09.13-.19.19-.29s.14-.18.22-.26c.13-.12.25-.25.36-.38s.21-.28.29-.44l.15-.19.19-.16c.11-.08.22-.17.31-.27.1-.1.18-.2.26-.32.16-.24.37-.44.63-.57.11-.06.21-.13.28-.22.08-.09.14-.19.19-.31.04-.09.08-.17.14-.24l.2-.18c.15-.1.32-.17.49-.22h.12l.21.06.04.03.14.14.03.04c.11.17.12.38.02.55l-.04.07c-.12.14-.27.26-.42.36-.24.17-.36.38-.33.67.02.18.05.35.08.52Zm-5.01 1.24c.03.13.1.26.18.38l.11.14h-.96v-.07c-.03-.14-.11-.25-.26-.26l-.13.03-.05.02-.11.14-.07.14h-.59l.06-.12a.46.46 0 0 1 .27-.29c.1-.04.21-.06.34-.07l.13.02h.32l.12-.05.06-.03.05-.06.03-.04.04-.05c.03-.07.06-.14.09-.25v-.07c.06-.2.1-.4.13-.61l.04-.21c.06-.2.17-.36.38-.45.28-.13.56-.23.85-.35h.17l.05.02.13.13c.2.32.17.51-.13.72-.29.2-.59.38-.89.57-.26.16-.37.31-.37.51v.16Zm.18-7.38-.04-.11c-.07-.12-.04-.24.07-.32l.11-.04h.05l.16.11c.27.26.44.57.44.96l-.05.19c-.14.35 0 .61.25.85.08.07.15.16.19.25l-.08.19-.16-.06c-.15-.34-.46-.48-.78-.62-.19-.08-.24-.2-.16-.4.13-.35.14-.68 0-1.01Zm-4.75-1.61q-.32-.01-.38-.33l-.03-.2c-.01-.27-.16-.42-.41-.49l-.16-.04c-.29-.06-.43-.24-.47-.52-.02-.14-.03-.28-.06-.42-.06-.25-.2-.41-.46-.45l-.26-.06c-.59-.12-.95-.47-1.1-1.05l-.08-.25-.03-.1c-.12-.29-.17-.33-.49-.4l-.06-.02v-.04c.12-.4.02-.76-.1-1.13-.12-.36-.33-.66-.57-.95l-.05-.06.12.11.12.11h.01c.08.07.18.11.27.11.1 0 .2-.04.28-.11.17-.15.19-.34.08-.56-.12-.23-.23-.47-.33-.71-.07-.17-.12-.29-.18-.4l-.06-.08-.13-.15-.11-.05-.16-.06h-.19a.7.7 0 0 0-.25-.02c-.03-.14-.05-.28-.08-.42l-.05-.24.02-.15c.02-.11.06-.21.16-.28l.02-.02.14-.12.14-.14.06-.04.11-.07.08-.02.16-.02v.09l-.13.23c-.04.13-.01.27.06.42.12.26.18.54.26.81.12.42.4.7.79.88l.03.02.2.02h.05l.18-.11c.13-.12.09-.26 0-.39l-.02-.03-.02-.02c-.09-.14-.18-.27-.28-.4l-.13-.15c-.06-.12-.11-.25-.17-.37-.09-.2-.17-.39-.26-.59.19-.24.42-.41.67-.56.1-.06.19-.12.3-.17.36-.15.74-.27 1.12-.4h.03c.12-.05.25-.1.37-.14l.21-.03.23.04c.13.04.25.12.38.18.1.05.21.08.3.14.12.07.22.21.27.35.27.63.53 1.28.79 1.91.04.09.1.17.12.27.19.64.39 1.28.56 1.92.11.4-.12.71-.53.79h-.07l-.22.06c-.34.08-.48.24-.52.58v.2l-.1.11-.05-.08-.07-.11-.22-.2-.08-.02-.15-.03h-.07c-.1 0-.17.05-.22.12l-.05.11-.05.12v.11c-.03.19 0 .36.11.52l1.14 1.77c.06.09.12.18.17.28l.69 1.38c.06.13.09.27.15.4.1.25.21.5.3.76.09.24.17.47.23.72.08.32.21.58.55.72.27.11.29.31.11.49l-.18.09h-.02l-.07-.02h-.04l-.1-.11-.07-.15a.58.58 0 0 0-.43-.37c-.31-.07-.49-.27-.51-.6-.01-.23-.14-.37-.34-.48-.27-.15-.36-.25-.36-.46 0-.07 0-.16.03-.26.02-.09.02-.17.01-.23-.02-.19-.14-.25-.42-.27Zm-.72.91c.02.21-.14.4-.34.4l-.09-.02h-.04l-.08-.06-.03-.02-.05-.07-.03-.04-.03-.13.12-.21a.6.6 0 0 1 .31-.1l.12.04.05.02.08.18Zm2.46-5.05.04.25c-.02.25-.05.5-.08.77-.15-.2-.28-.37-.4-.56-.1-.15-.17-.31-.06-.49l.09-.12.04-.02.12-.02c.09.03.19.1.25.18Zm.75 4.45s-.04-.13-.08-.27c.13.08.19.12.25.15.1.06.2.14.31.19l.19.05.2-.09.02-.02c.13-.15.16-.29.05-.45-.09-.14-.14-.28-.18-.43-.04-.14-.06-.29-.07-.45 0-.15-.06-.3-.13-.44l-.07-.14c-.08-.13-.13-.27-.15-.4-.02-.15 0-.31.04-.48.06-.21.07-.43.06-.65-.03-.44-.08-.87-.13-1.31a.9.9 0 0 0-.1-.31c-.19-.29-.2-.6-.13-.92.08-.34.05-.66-.13-.96-.38-.64-.55-1.36-.83-2.04-.14-.33-.29-.66-.42-1-.05-.14-.1-.29-.09-.44l.02-.06.06-.11.03-.03.15-.07.13.04c.27.18.57.23.87.28.32.05.52.22.63.46.03.08.06.16.08.26.05.26.08.52.08.78 0 .47.03.94.13 1.4.13.58.16 1.17.15 1.77 0 .31.03.61.04.92 0 .13.02.26 0 .39-.06.51.04 1 .16 1.49l.03.05c.05.17.15.3.27.42l.21.18c.24.14.42.34.56.56l.11.18.12.25c.07.16.08.32.04.47a.57.57 0 0 1-.2.3c-.18.16-.32.36-.48.54l-.04.05-.02.08v.02c-.09.38-.32.72-.39 1.12l-.03.21c0 .08-.03.16-.06.31-.17-.09-.3-.13-.4-.21l-.13-.24c-.03-.09-.02-.19-.03-.29-.03-.33-.12-.62-.43-.81-.12-.07-.2-.2-.29-.31Zm-9.82 9.19h-.6l-.02-.19.15-.18.13-.04h.03l.07.03.03.02.06.08.03.05.11.22Zm26.89 12.25-.03.2-.04.25-.03.17-.05.3-.02.12-.07.44-.04.26-.23 1.47v.06l-.07.39v.09l-.05.22-.02.14v.05l-.07.4v.08l-.06.33v.05l-.07.43v.07l-.07.38-.27 1.68h-5.23l.39-1.45h-.12c-1.14 1.04-2.11 1.7-3.62 1.7-1.65 0-2.74-.92-3.32-2.2-.06-.13-.11-.26-.16-.39v-.03c-.06-.14-.1-.28-.14-.42v-.02l-.02-.07c-.05-.2-.09-.41-.11-.61v-.08c-.02-.18-.04-.36-.04-.54 0-.24 0-.48.01-.72l.02-.24c.01-.12.03-.25.05-.37.03-.22.08-.44.14-.66.03-.12.06-.25.1-.37.03-.1.07-.2.1-.3l.07-.2c.05-.13.11-.26.16-.39l.03-.07c.07-.15.14-.29.21-.44.1-.18.2-.36.31-.54.1-.16.21-.32.32-.47.1-.13.2-.25.3-.38l.3-.33.18-.18.14-.12.2-.17c.12-.1.25-.19.38-.28.11-.08.23-.15.35-.22.19-.11.38-.21.59-.29.43-.18.88-.3 1.36-.35.09 0 .19-.01.28-.02h.34c.16.02.31.04.45.05.34.04.65.12.94.25l.15.05c.12.06.22.14.32.21.09.06.19.12.27.19h.01c.25.22.47.47.65.79h.12l.02-.74v-.42l.02-.08v-.05h5.24l-.18 1.12-.2 1.24-.05.33-.05.28v.02l-.03.18-.04.24Zm10.87-3.55-.02.1-.07.44-.04.28-.19 1.24-.05.3-.07.48v.05l-.11.64-.1.62-.09.56-.05.33-.04.26-.18-.12-.12-.08a2.406 2.406 0 0 0-.8-.36c-.13-.03-.28-.05-.44-.05-1.15 0-1.91.58-2.27 1.56-.05.13-.09.28-.12.42l-.05.21-.03.21v.05l-.08.44-.07.44-.48 3.08h-5.34l.32-2.04.08-.49.06-.41.02-.1.11-.67.03-.17.11-.69.11-.69.07-.43.09-.58.02-.11.02-.1.08-.51.03-.21.12-.73.18-1.12.31-1.93h5.34l-.28 1.15-.08.32h.12l.25-.28c.25-.27.49-.5.74-.69.25-.18.5-.33.76-.44s.53-.17.83-.22l.14-.03.3-.03.2-.02h.26c.17-.01.33-.02.51-.01l-.02.11Zm0-9.38c-.21.03-.34.14-.41.33a.7.7 0 0 1-.29.36h-.49v-.13c0-.32.02-.36.34-.37.23-.01.39-.13.54-.28.11-.12.24-.22.36-.33.22-.2.45-.39.67-.58.1-.09.15-.22.1-.36l-.12-.15-.06-.02-.14-.03c-.15.01-.31.02-.45.08-.61.27-1.1.67-1.36 1.31l-.1.14-.03.02-.13.05-.12-.03-.18-.04h-.04l-.13.04-.04.02-.14.12c-.14.16-.27.34-.4.52h-.01v.01h-1.03l-.12-.25c.1-.2.24-.37.27-.55.02-.14.05-.28.07-.42.02-.13.04-.27.07-.4.05-.27.09-.55.13-.82.04-.34.14-.63.34-.87.07-.08.15-.16.24-.22.2-.15.42-.32.52-.53.17-.36.47-.5.79-.63l.24-.11c.23-.12.42-.28.52-.53.07-.19.22-.32.4-.42.19-.1.37-.19.54-.32.1-.07.2-.19.23-.3a.86.86 0 0 1 .36-.49c.21-.14.45-.24.65-.38.3-.22.78-.31.59-.89h.18c.11 0 .21-.02.31-.07l.05-.03c.09-.05.18-.11.26-.17l.25-.15c.18-.1.3-.24.4-.42.1-.16.24-.3.39-.43.13-.12.3-.19.43-.3.24-.19.47-.4.47-.7.31-.16.59-.32.88-.44.29-.13.46-.32.46-.65l.2.05.21-.12c.17-.22.43-.2.66-.24l.12.03.04.02.04.15c-.04.19-.11.38-.18.56l-.13.26c-.05.09-.1.18-.13.27-.09.22-.25.34-.45.43l-.16.08c-.13.03-.26.05-.39.07-.3.05-.51.2-.6.47l-.05.13-.08.25c-.05.12-.12.2-.2.26l-.08.05-.03.02-.17.05h-.17l-.24-.09-.25-.16-.18-.04-.16.07-.03.04a.33.33 0 0 0-.07.21c0 .12 0 .24-.05.35-.04.09-.06.18-.06.28l.03.2v.22c-.07.14-.08.27-.07.41l.04.2.06.2c.13.34.28.67.41 1.01.05.13.12.27.11.41l-.06.16-.14.15-.27-.11c-.22-.3-.46-.58-.53-.97-.02-.14-.06-.28-.13-.4a.66.66 0 0 0-.25-.27l-.11-.04-.22-.06-.19.02-.1.02c-.1.04-.19.1-.27.19-.25.29-.41.63-.42 1.01v.86c0 .28.16.49.35.68.08.08.2.18.2.27 0 .17-.07.35-.23.45-.12.08-.25.14-.36.22-.14.1-.29.2-.4.33-.18.22-.09.49.18.57l.1.02c.09.01.18 0 .27-.02l.15-.03.22-.09.14-.07.2-.17.1-.09c.08-.1.15-.21.19-.32l.09-.21c.11-.41.15-.82-.12-1.2-.2-.28-.26-.58-.1-.9l.21-.17.18.19c.09.38.37.65.57.96l.25.13c.17.02.25.12.32.25.07.15.16.29.21.44l.03.09c.08.24.16.48.35.66l.08.21v.05l-.05.08-.02.02-.12.05-.11-.03a1 1 0 0 1-.25-.21c-.09-.11-.17-.23-.24-.35l-.18-.18-.04-.02-.22-.05h-.16c-.24.03-.31.22-.35.42-.12.5-.23.6-.74.69a7 7 0 0 0-.64.15c-.17.05-.26.21-.26.41s.11.37.29.38h.18c.12 0 .25-.02.36-.06.2-.07.37-.22.57-.31l.24-.03c.18.08.35.18.51.29.09.07.18.17.23.28.06.12.13.23.22.33.25.3.57.5.91.69l.07.06h-4.39c.09-.1.2-.19.33-.25.11-.06.22-.15.3-.25.15-.17.15-.34.02-.47l-.22-.1h-.02l-.21.08c-.11.09-.23.15-.36.2s-.26.07-.39.1Zm8.06-5.45c0 .15 0 .29.03.41.03.1.03.2.02.29q-.03.255-.21.48l-.2.26-.14.16-.07.05-.05.04-.11.05-.16.03-.21-.03-.2-.03-.24.07-.05.03a.54.54 0 0 0-.18.21c-.21.38-.58.58-.91.82l-.08.06c-.14-.14-.18-.28-.14-.44.03-.12.06-.24.1-.35.13-.38.1-.76-.09-1.09l-.11-.23c-.19-.41-.29-.85-.48-1.26-.08-.19-.18-.37-.29-.55-.06-.1-.11-.19-.05-.3l.12-.12h.06l.1-.03h.02l.19.03c.46.28.94.52 1.06 1.13.07.35.21.69.32 1.03.03.09.08.18.14.25l.23.11h.03l.1-.02.05-.02.11-.13a.74.74 0 0 0 .1-.43c-.05-.51-.13-1.01-.32-1.48a3 3 0 0 0-.24-.46c-.15-.24-.28-.5-.41-.75v-.05c-.07-.14-.07-.29.04-.41l.21-.12h.05l.23.03.19.1c.12.07.23.14.31.24.15.18.28.38.4.58l.09.16c.12.22.2.46.27.71l.04.13c.02.09.04.2.02.29-.08.34 0 .38.28.57Zm-.11 6.13h-.49c.03-.17.05-.34.05-.52 0-.54.04-1.09.06-1.63v-.04l.03-.16c.04-.11.06-.22.1-.33.09-.32.15-.66.17-1.03v-.03l.03.01c.24.08.37.21.37.42 0 .26-.03.52-.06.78-.03.3-.09.6-.12.91-.03.28-.09.57-.06.85.03.27 0 .52-.07.76Zm-1.56-2.27-.18.05h-.03l-.14-.13c-.07-.12-.03-.23.14-.31l.24-.1.16-.05h.04l.07.03.03.02.08.09.05.06-.09.06c-.13.1-.25.19-.37.28m-.06 1.97-.18.07-.17-.07-.23-.23a.8.8 0 0 0-.29-.2l-.1-.02h-.01c-.09-.02-.17-.05-.27-.04h-.07l-.17-.06v-.02s-.03-.11 0-.21v-.02c.05-.14.12-.27.08-.43l.12-.2.2-.05h.05l.12.04.05.02.14.13c.2.24.42.47.63.71.07.08.14.17.19.26.06.12.03.24-.08.32Zm3.52 7.67-.09-.03c-.14-.06-.28-.1-.41-.12l-.18-.03c-.1 0-.18.01-.27.03l-.24.07c-.38.16-.61.51-.73.9-.04.12-.07.25-.09.38l-.02.09-.08.41.1-.01.61-.08.62-.08.5-.06-.68 4.28-1.7-.14-1.08 6.85h-5.34l.82-5.2.07-.44.07-.44v-.02l.04-.23.07-.44v-.09l-.87.09h-.01l-.31.03-.27.03.02-.12.15-.92v-.08l.07-.38v-.05l.07-.42v-.04l.3-1.85.07-.42.34.04.18.02.2.03.71.09v-.02l.02-.14.06-.35.02-.13.08-.52c.23-1.46.73-2.61 1.5-3.44.18-.19.37-.36.58-.52.52-.39 1.14-.67 1.87-.84.15-.03.3-.08.46-.11.33-.05.69-.07 1.06-.08h.07c.18 0 .35.02.53.03a9 9 0 0 1 1.09.12c.22.03.45.06.67.1l-.68 4.24Zm.16-7.37h-.89c.07-.21.1-.41.02-.63a.9.9 0 0 1 .04-.7c.08-.18.09-.36.02-.54-.11-.31-.09-.62-.02-.94.03-.15.05-.31.03-.45-.04-.33-.11-.65-.16-.97-.04-.23-.04-.45.01-.67l.02-.08.12-.24.03-.08.03-.08.04-.11c.04-.18-.02-.3-.2-.36h-.05l-.12-.04h-.01a.64.64 0 0 1-.25-.19c-.1-.12-.17-.27-.16-.39.02-.21.06-.41.08-.62v-.12c.04-.45-.07-.84-.42-1.17l-.12-.13c-.22-.22-.42-.46-.64-.69l-.09-.17v-.14l.02-.14c.05-.11.11-.21.18-.31l.12-.12H90l.07-.04h.04l.03.03.04.02.12.13c.27.37.54.73.82 1.08l.13.17c.16.2.28.42.38.65.04.11.1.22.12.34.04.26.1.52.16.77a1.34 1.34 0 0 1-.05.74c-.05.16-.08.27-.08.38v.16l.11.17.03.05.04.04.09.07.13.1.19.06.09.03h.01c.1 0 .19-.03.29-.1.17-.12.24-.31.15-.53-.07-.14-.1-.28-.11-.43s0-.29.04-.44l.05-.26v-.26c0-.33.11-.57.34-.79s.37-.48.36-.82v-.05c.02-.11.06-.22.12-.31l.02-.03c.2-.31.23-.63.13-.98l-.21-.69c-.13-.43-.42-.79-.43-1.26l-.06-.15-.2-.2-.08-.03-.19-.05h-.09q-.18 0-.36.09l-.18.12a.33.33 0 0 0-.1.33l.08.24c.16.36.05.7 0 1.04l-.02.16-.13.18-.23.18c-.09.07-.16.1-.22.12s-.03 0-.03 0l-.08-.02-.11-.03c-.11-.08-.15-.2-.16-.32v-.18c.04-.09.09-.18.14-.26l.08-.18.02-.15-.05-.14-.13-.14c-.12-.11-.27-.19-.41-.29-.09-.06-.17-.13-.26-.18a.51.51 0 0 1-.27-.45c-.01-.21.05-.39.17-.56l.05-.07.11-.14c.27-.41.16-.87-.28-1.08-.23-.11-.5-.16-.74-.25-.17-.06-.34-.09-.5-.08h-.05c-.16.01-.32.05-.48.11-.12.05-.25.08-.38.12l-.18.03h-.04l-.14-.03-.05-.02-.09-.07-.06-.06-.18-.15-.08-.02-.18-.02c-.13.01-.26.04-.39.07-.16.04-.31.1-.47.15l-.06.02-.19.03h-.05l-.09-.02h-.05l-.1-.09-.02-.02-.18-.15-.07-.02-.14-.03h-.07l-.25.04c-.14.04-.28.11-.42.16h-.28l-.12-.15c-.15-.24-.16-.64.04-.79.41-.33.47-.86.75-1.26v-.19c.06-.47.1-.94.17-1.41.07-.54.16-1.08.15-1.64 0-.14.03-.28.07-.42.12-.4.13-.8.11-1.21l-.07-.25c-.23-.33-.47-.66-.7-.99-.11-.15-.22-.3-.34-.44-.22-.25-.43-.54-.7-.73-.34-.24-.62-.51-.84-.87-.09-.15-.21-.24-.35-.33-.32-.19-.61-.4-.74-.79-.13-.41-.4-.75-.68-1.08-.21-.23-.42-.48-.58-.74-.18-.29-.38-.54-.66-.71-.41-.26-.65-.68-.92-1.05l-.24-.33c-.08-.1-.18-.2-.28-.29l-.26-.2c-.27-.19-.54-.37-.75-.64a.6.6 0 0 0-.3-.19l-.22-.12-.23-.12-.16-.14-.23-.19-.2-.17c-.25-.2-.34-.57-.26-.88.03-.12.08-.23.16-.32.12-.13.25-.26.33-.41l.12-.19c.13-.19.28-.37.46-.52.27-.23.42-.53.54-.85.09-.27.21-.53.32-.79.05-.12.12-.24.15-.36q.21-.78.39-1.56c.33-1.44.54-2.89.48-4.37 0-.13 0-.26-.01-.39l-.09-1.24c-.03-.45-.08-.89-.29-1.3-.23-.44-.36-.92-.69-1.3l-.05-.09c-.26-.45-.49-.91-.78-1.33-.28-.42-.58-.83-.92-1.19-.42-.43-.9-.8-1.35-1.2l-.24-.17c-.21-.15-.43-.3-.64-.45l-.26-.13c-.12-.05-.25-.08-.35-.16-.45-.36-.92-.66-1.45-.9l-.25-.15c-.43-.24-.85-.48-1.35-.56-.76-.12-1.46-.47-2.21-.61l-.24-.11c-.54-.27-1.1-.51-1.7-.59-.57-.08-1.14-.18-1.67-.43-.15-.07-.32-.08-.48-.12-.31-.07-.62-.15-.93-.2-.34-.06-.69-.09-1.04-.14-.31-.05-.63-.09-.93-.17-.36-.09-.71-.21-1.07-.32-.32-.11-.64-.22-.96-.34-.15-.06-.29-.13-.44-.18-.15-.06-.3-.1-.46-.12-.15-.02-.29-.09-.44-.13-.17-.04-.34-.07-.51-.1-.18-.03-.37-.03-.55-.08-.28-.08-.58-.15-.84-.28a1.4 1.4 0 0 0-.32-.11h-.11l-.21-.03h-.03c-.19 0-.39.03-.58.07-.32.06-.63.24-.92.41-.22.13-.35.36-.35.64v1.31c0 .41 0 .83.04 1.24.04.48.14.96.15 1.43 0 1.01-.03 2.02-.05 3.03-.02.73-.04 1.47-.07 2.2 0 .11-.04.22-.05.32-.03.26-.08.52-.08.78 0 .48.04.96.06 1.44 0 .16.01.33.05.49.1.46.2.92.31 1.37.12.47.26.93.39 1.39.12.41.21.83.18 1.26-.02.27.02.52.15.77.18.35.25.72.25 1.11 0 .27.04.55.09.81.1.5.04.99-.09 1.46-.07.26-.22.48-.46.66-.12.09-.21.21-.3.33s-.18.25-.28.37c-.31.36-.62.71-.94 1.06l-.16.12c-.17.15-.35.29-.5.46-.24.27-.46.55-.7.83-.27.31-.59.59-.72 1.01-.03.11-.13.2-.22.28-.24.21-.39.47-.55.73-.17.26-.38.51-.6.73-.15.14-.26.28-.33.48-.12.33-.29.64-.55.89-.3.28-.56.58-.74.96l-.11.16c-.17.18-.36.35-.53.54-.23.26-.46.52-.61.85-.1.23-.25.44-.41.63-.38.48-.82.91-1.17 1.41-.3.43-.52.91-.93 1.26l-.05.08c-.43.7-.85 1.41-1.28 2.11-.24.39-.49.78-.78 1.14-.36.45-.46.96-.39 1.48.03.25 0 .49-.04.74-.02.12-.03.24-.04.36s0 .24.02.37c.02.11.02.23.02.34s0 .23.03.34c.16.78.34 1.56.5 2.34.03.16.03.33 0 .49-.06.32-.03.62.07.92.03.1.07.2.11.29.05.12.09.25.1.37.07.5.13 1 .33 1.47.04.09.07.19.06.29-.03.3.03.59.15.86v.22c-.01.42-.04.83.09 1.24.05.15.04.32.06.49.01.13 0 .27.04.39q.06.165.09.33t.03.33c0 .22 0 .45-.01.67 0 .46-.03.93.32 1.31.15.16.11.35 0 .52l-.13.14-.03.03-.17.06-.13-.02-.2-.02-.23-.04-.12-.02a.9.9 0 0 1-.3-.2c-.1-.09-.21-.18-.33-.26l-.11-.06-.24-.13-.15-.05-.24-.07-.17-.02c-.1 0-.21-.02-.32-.01-.18.01-.34.05-.49.16-.27.22-.57.36-.9.46-.31.1-.56.28-.73.58-.29.53-.6 1.05-.89 1.58H16.7L63.5 3.63l46.85 81.14zm-.38-9.21.06-.23c.19-.28.45-.5.71-.73.22.31.19.61.13.91-.04.16-.13.32-.23.47l-.11.11-.04.02-.09.02h-.07l-.17-.07c-.13-.1-.2-.3-.2-.48Z" class="cls-2"/><path d="M62.61 14.48c-.15-.66-.29-1.32-.38-1.72.11-.08.21-.17.29-.29a.7.7 0 0 0-.15-.34c-.09-.11-.18-.2-.28-.29-.15-.02-.31-.03-.49-.05-.18-.01-.33 0-.48.01a1 1 0 0 1-.42-.07 2.7 2.7 0 0 0-.46-.14 1 1 0 0 0-.42 0c-.13.03-.24.14-.32.33-.04.1-.04.2 0 .29l.2.25.27.24q.135.12.21.27-.195.585-.45 1.11c-.18.36-.33.73-.47 1.11-.3.83-.56 1.69-.77 2.6s-.31 1.8-.31 2.69c0 .14-.05.24-.14.31-.08.07-.18.13-.29.17-.11.05-.23.09-.35.13s-.22.11-.3.2c-.18.2-.24.4-.12.71.08.19.29.23.42.32.34.01.78-.04 1.16.01.39.05.85 0 1.16.11.14-.03.55-.01.67-.13.11-.12.06-.3-.03-.47-.08-.15-.2-.28-.31-.42s-.25-.27-.41-.39q.045-.33.18-.6c.09-.18.16-.38.21-.59.1-.24.19-.48.25-.72.07-.24.14-.49.2-.74.03-.14.07-.28.11-.42.1.1.22.22.37.35.24.22.61.58.96.8l.03.13c.04.2.44 2.02.46 2.12s1.35.31 1.45.23.44-1.66.42-1.74c0-.05.02-.29.07-.57l.22-.09c.57-.29.98-.81 1.31-1.16.16-.17.29-.29.39-.38.1.34.18.7.29 1.03.24.71.5 1.42.78 2.15-.03.16-.14.3-.31.43s-.23.17-.35.3l-.16.19c-.08.15-.02.15-.04.19q-.05.15-.01.33c.03.14.65.09.82.14.31-.08.67-.03 1.01-.08s.78.04 1.09-.04c.15-.04.55.02.65-.11s-.08-.52-.23-.69c-.14-.15-.27-.3-.46-.39s-.35-.19-.47-.32c-.08-.65-.18-1.3-.29-1.95q-.165-.975-.39-1.92c-.15-.63-.33-1.25-.54-1.85s-.45-1.18-.74-1.74c-.09-.13-.12-.24-.08-.33s.11-.18.2-.25c.09-.08.19-.15.3-.23q.165-.105.24-.27a.38.38 0 0 0-.13-.35c-.1-.1-.21-.2-.31-.29-.31.06-.62.11-.95.14-.32.04-.64.04-.94 0a.44.44 0 0 0-.37.15l-.31.34c-.03.17 0 .29.11.37l.08.05c-.13.5-.32 1.43-.44 1.98l-.21-.06c-.68-.15-1.16-.16-1.51-.11Zm2.49 3.6c-.17.15-.33.28-.51.4-.08.05-.15.11-.24.16-.31.15-.71.26-1.03.26s-.79-.12-1.11-.28c-.18-.09-.33-.2-.46-.32-.22-.19-.41-.4-.59-.59-.14-.15-.25-.28-.33-.38.12-.16.29-.49.55-.77l.11-.12c.24-.21.58-.39.89-.54.18-.09.36-.12.54-.14.14-.01.27-.01.41-.01.23 0 .46.06.69.14.1.04.2.07.29.12.39.2.73.49 1.01.76l.18.16c.14.15.25.28.33.38-.14.18-.39.47-.71.75Zm-1.5-3.24c.21.04.44.09.66.16.29.09.56.19.74.34.17.14.42.4.65.65l.23.25c.11.12.21.21.27.26l.16.13.06.13c.08.21.28.5.23.57l-.12-.18s-.17-.16-.44-.41c-.13-.12-.27-.25-.45-.41l-.06-.06c-.26-.25-.58-.64-.93-.82-.13-.07-.27-.11-.41-.16-.27-.1-.55-.17-.86-.17-.19 0-.36.04-.54.07-.26.06-.5.14-.73.25-.3.16-.57.35-.81.54l-.15.14c-.14.12-.28.25-.39.37-.33.35-.52.62-.52.63l-.03.04a2 2 0 0 1 .12-.71c.06-.04.34-.35.9-.81l.04-.04c.11-.09.22-.18.35-.28.43-.32.8-.47 1.13-.53.35-.07.65-.03.91.02Z" class="cls-2"/><path d="M63.85 16.41a1 1 0 0 0-.48-.14c-.11 0-.21.03-.31.06-.39.13-.68.49-.68.93 0 .55.44.99.99.99s.99-.44.99-.99c0-.37-.21-.68-.51-.85M65.5 97.69c-.18-.09-.39-.15-.63-.15h-.05c-.54.02-.98.32-1.27.75-.06.09-.11.19-.16.28-.06.14-.11.28-.14.43v.05l-.02.1c-.04.4 0 .77.17 1.04l.03.04c.08.12.18.21.31.28l.03.02c.11.05.24.09.38.11l.23.02c.34 0 .63-.1.86-.25.46-.3.74-.84.83-1.4.09-.61-.13-1.09-.57-1.32" class="cls-2"/></g></svg>